<?xml version="1.0" standalone="no"?>
<!DOCTYPE svg PUBLIC "-//W3C//DTD SVG 20010904//EN"
 "http://www.w3.org/TR/2001/REC-SVG-20010904/DTD/svg10.dtd">
<svg version="1.0" xmlns="http://www.w3.org/2000/svg"
 width="2018.000000pt" height="2018.000000pt" viewBox="0 0 2018.000000 2018.000000"
 preserveAspectRatio="xMidYMid meet">
<metadata>
Created by potrace 1.11, written by Peter Selinger 2001-2013
</metadata>
<g transform="translate(0.000000,2018.000000) scale(0.100000,-0.100000)"
fill="#000000" stroke="none">
<path d="M0 10090 l0 -10090 10090 0 10090 0 0 10090 0 10090 -10090 0 -10090
0 0 -10090z m10680 9259 c641 -49 1087 -116 1629 -245 649 -155 1313 -397
1926 -700 401 -198 676 -356 1085 -623 241 -157 658 -474 920 -700 577 -497
1106 -1077 1550 -1701 69 -96 148 -210 177 -255 113 -175 242 -383 273 -440
18 -33 36 -64 40 -70 23 -31 162 -290 258 -480 415 -828 699 -1686 856 -2595
238 -1376 164 -2840 -211 -4165 -170 -603 -378 -1136 -656 -1685 -504 -995
-1149 -1863 -1946 -2618 -166 -157 -420 -383 -521 -463 -236 -188 -311 -244
-485 -369 -218 -156 -549 -373 -715 -467 -58 -33 -150 -86 -204 -117 -127 -74
-573 -297 -736 -369 -732 -323 -1445 -540 -2205 -673 -628 -109 -1338 -160
-1918 -136 -441 18 -661 37 -1017 86 -875 121 -1696 356 -2530 723 -137 60
-553 267 -677 336 -271 151 -445 256 -718 435 -79 52 -421 297 -490 351 -359
282 -515 416 -780 667 -336 319 -673 690 -948 1044 -121 155 -376 508 -432
598 -16 26 -66 103 -110 172 -165 254 -440 757 -587 1075 -455 983 -742 2059
-833 3125 -103 1224 21 2417 372 3570 19 63 39 130 44 147 38 131 208 585 294
788 232 545 492 1031 820 1535 244 375 686 935 974 1235 237 248 277 284 344
315 169 80 351 53 482 -71 109 -103 157 -236 135 -379 -18 -115 -56 -173 -246
-373 -196 -208 -412 -455 -529 -606 -44 -57 -98 -127 -121 -155 -50 -63 -292
-407 -324 -461 -13 -22 -49 -78 -79 -125 -30 -47 -69 -107 -86 -135 -93 -146
-465 -850 -465 -880 0 -3 -13 -34 -29 -68 -42 -90 -120 -274 -141 -332 -10
-27 -33 -86 -50 -130 -51 -129 -185 -528 -228 -680 -148 -515 -243 -1014 -298
-1570 -43 -430 -45 -1169 -4 -1545 5 -47 14 -137 20 -200 39 -394 132 -876
255 -1325 51 -188 177 -576 229 -710 140 -356 141 -357 215 -518 17 -37 31
-70 31 -73 0 -18 249 -499 347 -669 196 -342 466 -746 671 -1005 42 -52 92
-115 111 -140 19 -25 105 -126 191 -225 525 -609 1161 -1161 1840 -1598 148
-95 531 -322 615 -363 22 -11 112 -57 200 -101 1251 -632 2712 -950 4123 -895
1155 45 2200 291 3252 767 118 54 220 101 225 105 6 4 75 40 155 81 164 83
487 269 669 385 278 178 746 522 913 672 29 26 98 86 153 133 240 207 579 550
824 834 288 334 492 611 784 1062 145 224 400 697 523 973 35 80 68 152 73
161 61 109 284 728 371 1029 168 582 285 1264 320 1874 13 230 13 788 0 1009
-38 624 -138 1206 -325 1877 -60 216 -247 749 -310 885 -16 35 -83 189 -111
255 -64 154 -360 715 -470 892 -16 26 -53 87 -83 135 -51 82 -124 191 -259
388 -78 113 -261 353 -351 461 -42 49 -92 110 -111 134 -130 164 -516 566
-735 766 -170 155 -191 173 -335 294 -376 313 -821 619 -1280 881 -174 99
-549 287 -715 359 -66 29 -149 65 -185 81 -187 82 -717 268 -920 323 -30 8
-107 29 -170 46 -509 140 -1070 231 -1687 275 l-83 5 0 -1894 c0 -1796 1
-1895 18 -1899 9 -3 40 -8 67 -12 182 -24 462 -103 703 -197 524 -206 1030
-593 1387 -1063 371 -487 593 -1056 656 -1675 6 -63 12 -281 13 -485 l1 -370
-150 -67 c-335 -150 -766 -306 -1080 -389 -494 -131 -834 -191 -1405 -249
-317 -32 -973 -32 -1290 0 -484 49 -760 93 -1135 181 -381 90 -892 255 -1167
377 -24 11 -107 47 -185 81 -78 35 -144 69 -147 78 -9 23 -7 447 4 673 38 790
333 1502 864 2083 451 492 1056 842 1707 986 74 16 157 32 184 36 28 4 58 9
67 11 17 5 18 124 20 2167 l3 2162 23 56 c61 153 167 239 347 283 30 8 502 -3
655 -15z m-2984 -369 c16 -6 35 -19 41 -29 17 -27 133 -463 133 -499 0 -59
-18 -68 -280 -138 -141 -37 -255 -62 -268 -59 -56 14 -81 84 -47 132 16 23 86
49 198 73 31 7 57 17 57 21 0 8 -116 50 -200 73 -152 41 -233 51 -440 50 -183
0 -218 -3 -331 -27 -693 -147 -1201 -662 -1341 -1359 -19 -96 -22 -144 -22
-313 0 -177 3 -214 27 -326 136 -644 605 -1142 1234 -1310 408 -109 826 -65
1203 127 466 238 793 669 899 1185 22 105 40 129 98 129 44 0 83 -37 83 -79 0
-44 -26 -163 -61 -276 -175 -565 -632 -1034 -1191 -1219 -336 -112 -717 -126
-1051 -41 -506 130 -935 460 -1184 910 -96 174 -156 338 -201 545 -24 115 -26
143 -26 360 0 217 2 245 27 360 59 276 165 519 324 743 75 106 285 318 393
397 230 169 471 276 760 337 115 25 144 27 360 28 207 0 248 -3 350 -23 118
-24 269 -69 353 -104 26 -12 50 -18 53 -15 3 3 -10 64 -30 136 -44 167 -40
186 50 221 1 0 14 -5 30 -10z m574 -810 c34 -18 130 -150 130 -179 0 -54 -50
-97 -101 -86 -37 8 -159 154 -159 190 0 13 12 37 26 54 27 33 67 41 104 21z
m-852 -505 c10 -13 40 -106 67 -206 26 -101 52 -188 56 -193 5 -6 16 -3 26 6
43 38 109 61 184 66 93 5 153 -12 224 -66 80 -61 103 -110 173 -374 34 -129
62 -240 62 -246 0 -6 -12 -24 -26 -41 -19 -23 -34 -31 -59 -31 -66 0 -78 23
-141 260 -62 237 -69 256 -114 293 -85 72 -218 29 -251 -81 -12 -40 -9 -55 46
-265 32 -122 59 -237 59 -256 0 -63 -79 -103 -131 -66 -27 19 -19 -8 -189 629
-150 564 -149 556 -87 587 40 20 78 14 101 -16z m1166 -6 c14 -7 34 -30 44
-53 55 -116 122 -392 125 -515 2 -45 -2 -64 -17 -79 -26 -29 -68 -36 -105 -18
-34 18 -43 43 -61 176 -14 104 -52 250 -85 332 -32 79 -31 103 4 139 32 31 55
36 95 18z m-1561 -91 c17 -18 41 -95 101 -323 43 -165 82 -303 85 -307 4 -4
23 -3 44 3 72 20 134 -45 106 -112 -11 -29 -28 -40 -90 -62 -15 -5 -11 -25 28
-169 25 -92 41 -173 38 -186 -9 -38 -41 -62 -83 -62 -60 0 -75 24 -122 205
-23 88 -43 161 -44 162 -1 1 -93 -23 -206 -53 -112 -30 -216 -54 -230 -54 -31
0 -67 31 -76 66 -8 32 303 857 336 891 30 31 83 31 113 1z m-824 -257 c109
-41 200 -131 242 -238 29 -77 30 -205 2 -278 -11 -27 -86 -167 -166 -309 -81
-142 -146 -260 -145 -262 2 -1 102 24 222 57 132 35 229 56 243 53 32 -8 63
-50 63 -86 0 -37 -36 -74 -86 -87 -22 -5 -168 -44 -325 -85 -158 -42 -296 -76
-307 -76 -12 0 -33 11 -48 24 -51 43 -45 61 159 417 242 426 237 416 237 488
0 243 -320 324 -440 111 -22 -39 -25 -57 -25 -137 0 -73 -4 -97 -17 -112 -38
-44 -101 -37 -135 16 -28 42 -25 199 6 276 43 109 164 213 286 244 63 16 170
9 234 -16z m712 -6702 c192 -83 362 -150 511 -204 160 -58 530 -174 633 -199
33 -8 114 -28 180 -44 259 -66 662 -137 940 -166 83 -9 188 -21 235 -26 47 -5
204 -14 350 -21 749 -32 1534 49 2272 235 234 59 624 179 768 237 245 97 312
125 424 173 71 31 133 56 138 56 14 0 3 -2449 -11 -2570 -77 -660 -306 -1220
-708 -1726 -156 -196 -439 -465 -648 -616 -262 -189 -588 -354 -890 -451 -167
-54 -214 -66 -360 -96 -291 -59 -560 -78 -839 -61 -218 13 -287 22 -481 61
-146 30 -193 42 -360 96 -360 115 -718 311 -1035 563 -137 110 -393 366 -504
505 -441 554 -681 1195 -716 1907 -11 225 -14 2371 -3 2381 8 9 -4 13 104 -34z"/>
<path d="M9939 13106 c-82 -33 -123 -61 -173 -117 -54 -60 -92 -135 -106 -208
-6 -32 -10 -280 -10 -621 0 -341 4 -589 10 -621 38 -201 219 -350 425 -350
126 0 235 49 320 143 51 56 66 81 92 155 17 44 18 101 18 673 0 668 1 651 -49
748 -24 46 -98 124 -151 158 -107 68 -267 85 -376 40z"/>
<path d="M6872 17018 c-40 -105 -71 -192 -70 -194 3 -2 228 57 236 62 5 3 -81
324 -87 324 -3 0 -39 -86 -79 -192z"/>
</g>
</svg>
