<?xml version="1.0" encoding="utf-8"?>
<!-- Generator: Adobe Illustrator 24.1.3, SVG Export Plug-In . SVG Version: 6.00 Build 0)  -->
<svg version="1.1" id="Layer_1" xmlns="http://www.w3.org/2000/svg" xmlns:xlink="http://www.w3.org/1999/xlink" x="0px" y="0px"
	 viewBox="0 0 500 421" style="enable-background:new 0 0 500 421;" xml:space="preserve">
<style type="text/css">
	.st0{fill:#F2F2F2;}
	.st1{fill:#0B4870;}
	.st2{fill:#81807E;}
	.st3{fill:#2A94F4;}
	.st4{fill:#F1B99E;}
	.st5{fill:#EEA886;}
	.st6{fill:#A77860;}
	.st7{fill:#FCD2B1;}
	.st8{fill:#FFE3CA;}
	.st9{fill:#0E538C;}
	.st10{fill:#AA0000;}
	.st11{fill:#D3D3D3;}
	.st12{fill:#FFFFFF;}
	.st13{fill:#EEBEA7;}
</style>
<g id="BACKGROUND">
</g>
<g id="OBJECTS">
</g>
<g id="DESIGNED_BY_FREEPIK">
	<g>
		<path class="st0" d="M273.6,36.2c5.7,3.1,11,6.6,15.9,10.3c16.9,12.9,30.6,31.6,47.2,44.6c15.7,12.2,34.9,15.2,52.9,17.2
			c31.4,3.6,96.7,37.6,84.9,100.8c-4.3,23-19.4,38.6-27.2,59.4c-8.2,22.1-7.4,49.8-20.5,69c-5.8,8.4-13.8,14-21.9,18.2
			c-54.5,28.1-115.7,26.8-173.5,23.7c-45.6-2.4-118.9,10.5-158.9-21.1c-19.9-15.7-9.5-58.5-23.3-81.5c-11.6-19.3-27.3-32-35-56.2
			C1,179.5,19.7,125.9,52.5,111.3c20.5-9.1,42.3-13.3,62.5-23.3c21-10.4,29-25.9,45-44.3C189,10.5,238.2,16.8,273.6,36.2z"/>
		<g>
			<path class="st1" d="M410.4,232.4c0,0,0.5-0.3,1.2-0.5c1.1-0.4,2.8-0.9,4.3-0.4c0,0,1.5,8.9,2.5,12.1c0.1,0.3,0.2,0.6,0.3,0.9
				c0,0,0,0.1,0.1,0.2c0.9,2.5,2.3,5.6,3,8.8c6.2-4,18.3-12.9,24.3-12.8l0,0c1.5,0,2.6,0.6,3.1,2c0,0,1.8,8.2-9.8,14.5
				c-4,2.2-8,3.5-11.4,4.2c-3.9,0.8-7.1,0.9-9,0.9h0c0,0-3.1,0.3-4.5-1.2c-1.4-1.5-1.7-4.2-1.7-4.2l0,0
				C411.3,250.2,410.4,232.4,410.4,232.4"/>
			<g>
				<path class="st1" d="M78.6,384.1c0,0-1.4,2.6-2.3,3.6c-0.9,1-4.3,2.8-4.4,5.9c0,3.3,5.8,2.4,8.1,2.3c2.3-0.1,2.4-1.9,3.4-3.7
					c1-1.9,1.9-1.5,2.1-3c0.2-1.5-0.9-4.9-0.9-4.9H78.6z"/>
				<g>
					<path class="st1" d="M113.3,383.8c0,0,2.8,3.1,5.7,3.8c2.8,0.7,4.8,1.5,4.9,3.3c0,1.8-8.2,3-11.5,1.2c-4.9-2.7-5.4-1.9-5.9-3.2
						c-0.5-1.4,0.6-5,0.6-5.4C107,382.9,113.3,383.8,113.3,383.8z"/>
				</g>
				<g>
					<path class="st2" d="M112.9,382.3c0,0,0.4,1.5,0.3,1.5c-0.1,0-6.4,0.8-6.2-0.4c0.2-1,0.4-2,0.4-2L112.9,382.3z"/>
				</g>
				<g>
					<path class="st2" d="M84.6,383.1c0,0,0.3,1.4,0.2,1.4c-0.1,0-6.4,1.2-6.4,0c0-0.9,0.6-2,0.6-2L84.6,383.1z"/>
				</g>
				<g>
					<path class="st3" d="M104.2,292.9c0,0,5.3,24,6.5,31.7c1.4,9,1.9,16.4,2.3,21.1c0.5,5.9,0.6,34.7,0.9,36.4
						c0.3,1.7-7.7,0.5-7.7,0.5s-3.9-37.6-5.4-43.9c-1.4-5.8-6.4-30.8-7.7-29.2c-1.2,1.6-2.8,29.2-3.7,33.7
						c-0.9,4.6-3.7,40.4-3.7,40.4s-6.4,1.3-8.1-0.2c0,0-0.8-30.9-0.2-39.5c0.2-3.3-3.8-39.2,1.4-53.7
						C81.5,282.6,104.2,292.9,104.2,292.9z"/>
				</g>
				<g>
					<g>
						<path class="st4" d="M137.1,253.5c0,0,4.6-5.1,5.2-5.1c0.6-0.1,0.8,0.2,0.4,0.7c-0.4,0.5-4.3,5-4.3,5s6.4-5,6.9-5.2
							c0.3-0.1,0.8,0.4,0.6,0.7c-0.2,0.3-6.3,5.6-6.3,5.6s6-4.7,6.4-4.7c0.4,0,0.7,0.6,0.3,1c-0.4,0.4-5.8,5-5.8,5s4.6-3.1,5-2.9
							c0.2,0.1,0.7,0.6-0.5,1.3c-1.2,0.8-3.9,2.9-3.9,2.9L137.1,253.5z"/>
					</g>
					<g>
						<g>
							<path class="st4" d="M132.7,260.2c0,0,1.4-1.8,0.9-3c-0.4-1-0.3-2.7-0.3-3.3c0-0.7-0.5-2.9,0.3-2.8c0.8,0.1,1.1,3.6,1.3,4.3
								c0.2,0.7,1.9-2.1,2.6-2.3c0.7-0.2,4.9,3.2,3.5,4.9c-1.4,1.8-4,2.6-4.2,3c-0.2,0.4-1,1.3-1,1.3L132.7,260.2z"/>
						</g>
					</g>
				</g>
				<g>
					<g>
						<path class="st4" d="M95.5,241c-0.2-0.1-0.4-0.2-0.5-0.3l-0.1,1l1.3,1.7l0.5,5.9c0,0-3.7-3.7-4.8-4.4
							c-0.8-0.5-0.9-2.6-1.8-3.1c-1.1-0.6-2.3-1.2-3.2-1.4c0,0-0.1,0-0.2,0.1c-0.1-1.3-0.4-3.6-0.9-6.9c0,0,0.2-0.5,0.5-1.3
							c0.3,0.8,0.7,1.4,1,1.8c0.3,0.3,0.7,0.6,1.1,0.9c0,0,1.1,3,7.1,5C95.5,240.4,95.5,240.7,95.5,241z"/>
						<path class="st4" d="M92.8,243.4c-1.6,0-3.6-0.3-5.2-1.2c-0.3-0.1-0.5-0.3-0.8-0.5c0,0,0-0.4-0.1-1.2c0.1-0.1,0.2-0.1,0.2-0.1
							c0.9,0.2,2,0.8,3.2,1.4C91.1,242.4,92,243,92.8,243.4z"/>
						<path class="st4" d="M95.5,238.1c0,0.4,0,0.9,0,1.4v0.5c-5.9-2-7.1-5-7.1-5c-0.4-0.3-0.8-0.6-1.1-0.9c-0.4-0.4-0.7-1-1-1.8
							c-0.3,0.7-0.5,1.3-0.5,1.3s0,0,0,0c-0.1-0.5-0.2-1-0.3-1.5c0-0.3,0.2-0.3,0.6-0.3c0.1,0,0.3,0.1,0.4,0.1c2.5,0.8,9,4.7,9,4.7
							S95.5,237.3,95.5,238.1z"/>
						<path class="st4" d="M95.9,242.5c0.1,0.3-0.3,0.6-1.1,0.7l0.1-1.5l0.1-1c0.2,0.1,0.4,0.2,0.5,0.3c0,0.1,0,0.2,0,0.2
							c0,0.2,0.1,0.4,0.1,0.6C95.7,242.1,95.8,242.4,95.9,242.5z"/>
					</g>
					<g>
						<path class="st4" d="M101.4,232.6c-0.4,0.4-1.6,5.8-3.3,5.9c-0.5,0-1.5-0.1-2.7-0.5c0,0-0.1,0-0.3-0.1
							c-1.7-0.5-3.7-1.3-5.4-2.2c-0.5-0.3-1-0.5-1.3-0.8c-0.4-0.3-0.8-0.6-1.1-0.9c-0.4-0.4-0.7-1-1-1.8c-0.1-0.2-0.1-0.4-0.2-0.6
							c-1.3-3.6-2-9.9-1-12.9c1.3-3.9,11.9-5.5,15.9,1.8c0,0,0.4,0.8,0.9,1.8c0.5,1.2,0.9,2.7,0.3,3.1c-0.9,0.5,1.1,4.7,1.3,5.3
							C103.7,231.7,101.8,232.2,101.4,232.6z"/>
					</g>
					<g>
						<path class="st1" d="M101.8,222.6C101.8,222.6,101.8,222.6,101.8,222.6c-5.5,3.5-5.8,0.2-8.1,0.8c-2.3,0.6-0.8,4.5-0.8,4.5
							s-0.9-0.1-1.9,0c-0.9,0.1-2,0.3-2.6,0.8c0,0-0.1,0.1-0.2,0.1c-0.5,0.5-1.2,2-1.7,3.1c-0.1,0.2-0.1,0.3-0.2,0.5
							c-0.3,0.7-0.5,1.3-0.5,1.3s0,0,0,0c-0.1-0.2-0.6-1.2-2.4-7.8c-2.5-8.7,2.5-9.1,3.3-9.3c0.9-0.2,8.5-4,13.6-2.3
							C104.1,215.6,102,222.2,101.8,222.6z"/>
					</g>
					<g>
						<path class="st5" d="M90.4,225.6c-0.2-0.5-0.9-2.9-2.9-1.5c-2,1.4,1.2,5.8,1.6,5.8C89.4,230,92.1,230.2,90.4,225.6z"/>
					</g>
					<path class="st6" d="M95.4,239.5v0.5c-5.9-2-7.1-5-7.1-5c0.3,0.2,0.8,0.5,1.3,0.8c1.9,0.9,4.5,1.8,5.4,2.2
						c0.2,0.1,0.3,0.1,0.3,0.1C95.4,238.5,95.4,239,95.4,239.5z"/>
				</g>
				<path class="st7" d="M137,261.7c0,0-0.2-0.5-0.6-1.2c-0.6-1-1.7-2.5-3.2-3.2c0,0-7.6,5.7-10.7,7.4c-0.3,0.1-0.6,0.3-0.9,0.5
					c0,0-0.1,0-0.2,0.1c-2.5,1.3-5.9,2.7-8.8,4.6c-2.2-7.1-5.6-21.8-10.5-25.6l0,0c-1.2-1-2.5-1.3-4-0.6c0,0-7.3,5-2.5,17.4
					c1.7,4.3,4,7.9,6.2,10.7c2.5,3.2,5,5.4,6.6,6.6h0c0,0,2.3,2.3,4.5,2.1c2.2-0.2,4.4-2.1,4.4-2.1h0
					C123.6,274.4,137,261.7,137,261.7"/>
				<path class="st8" d="M107.4,267.9c-0.6,13.1-2.6,12.5-2.4,24.2c0,0.2,0.1,0.7,0.1,1.2c0,0.3,0.1,0.5,0.1,0.7
					c0.1,0.3,0.1,1.1-0.7,1.3c0,0.2,0,0.4-0.1,0.6c-0.7,3.7-4.4,3.8-8.7,2.4c-6.7-2-14.8-5.4-14.8-5.4s-4.7,0.7-3.4-5.1
					c0.7-3,3.7-8.8,2.6-11.6c-1.9-4.8-4.6-12.5-5.8-18.8c-0.5-2.5-0.7-4.6-0.8-6.3c0-5.1,2.2-6.9,9.2-8.5c0.9-0.2,1.8-0.4,2.7-0.6
					c0.7-0.1,1.3-0.3,1.9-0.4c0.9-0.2,0.1,0.6,0.9,0.5c1,0.5,2.3,1.9,3.1,2.4c1.1,0.7,3.4,1.6,3.4,1.6l0.6-3l0-2
					c0.2,0,0.1,0,0.3,0.1c0.1,0,0.2,0.1,0.3,0.2c0.3,0.1,0.3,0,0.6,0.1c2.9,0.6,4.7,1.7,7,3.8C107.2,248.4,108.1,254.5,107.4,267.9z
					"/>
				<path class="st9" d="M94.4,248.7c0,0,1.6,25,0.2,33.8c0,0,1.8,4.8,2.9,5.2c1.2,0.4,2-2.4,3.1-5.5c1.1-3.1-4.1-33.8-4.1-33.8
					L94.4,248.7z"/>
				<path class="st9" d="M93.1,247.1l1.3,1.6l2.1-0.2c0,0,0.1-0.8,0.2-2.7c0,0-1.3-0.8-2.1-0.8L93.1,247.1z"/>
				<path class="st7" d="M94.6,245l-1.2,2.5l-0.2,0.4c0,0-4.8-3.4-5.8-4c-0.6-0.4-1.2-0.7-1.7-0.9c-0.4-0.2-0.7-0.3-0.7-0.3
					c0.7-1,1.1-1.6,1.4-1.8c0.1-0.1,0.2-0.1,0.2-0.1c0.9,0.2,2.4,0.9,3.5,1.5c1,0.5,1.9,1.1,2.7,1.6C93.9,244.5,94.6,245,94.6,245z"
					/>
				<path class="st7" d="M97.4,246.8c0-0.1-0.1-0.2-0.2-0.3v0c-0.6-1-2.2-1.5-2.2-1.5l0.2-1.4l0.1-1.5l0.1-1
					c0.2,0.1,0.4,0.2,0.5,0.3c0.6,0.4,1.1,0.9,1.1,0.9c0,0.1,0,0.1,0.1,0.2C98.2,245.2,97.4,246.8,97.4,246.8z"/>
			</g>
			<g>
				<path class="st10" d="M95.3,193.8c2.6-1.6,5.1-3.5,7.3-5.6l-0.2-0.5c0,0,0.1-0.1,0.1-0.1l-0.3-0.7c0.1-0.1,0.2-0.1,0.2-0.2
					l-2.4-6.6c1.1-1.2,2.1-2.6,3-3.9l8.2,0.8c1.5-2.7,2.7-5.5,3.6-8.5l-0.2-0.2c0-0.1,0.1-0.3,0.1-0.4l-0.2-0.2
					c0.1-0.2,0.2-0.4,0.2-0.7l-6-5c0.1-0.5,0.2-1,0.2-1.5c0.1-0.9,0.2-1.8,0.3-2.7l7.5-3.4c0-1-0.1-2-0.2-3
					c-0.2-2.6-0.5-5.1-1.1-7.6l-8.1-1.4c-0.5-1.4-1-2.7-1.6-4l4.5-6.2c-0.1-0.1-0.2-0.2-0.2-0.4l0.2-0.2c-0.1-0.2-0.2-0.3-0.3-0.5
					l0.3-0.4c-1.6-2.6-3.5-5.1-5.6-7.3l-7.7,2.8c-1.3-1.1-2.6-2.2-4.1-3.2l0.7-6.9c0,0-0.1,0-0.1-0.1l0.1-0.5c0,0-0.1,0-0.1-0.1
					l0.1-0.8c-2.7-1.5-5.5-2.7-8.5-3.6l-5.3,6.3c-0.9-0.2-1.8-0.3-2.7-0.5c-0.9-0.1-1.8-0.2-2.7-0.3l-3.4-7.5
					c-3.1,0.1-6.2,0.5-9.1,1.2l-1.4,8.1c-1.7,0.6-3.4,1.3-5,2.1l-6.6-4.8c-2.6,1.6-5.1,3.5-7.3,5.6l0.3,0.7
					c-0.1,0.1-0.2,0.1-0.2,0.2l0.2,0.5c0,0-0.1,0.1-0.1,0.1l2.4,6.6c-1.1,1.2-2.1,2.6-3,3.9l-8.2-0.8c-1.5,2.7-2.7,5.5-3.6,8.5
					l0.2,0.2c-0.1,0.2-0.2,0.4-0.2,0.7l0.2,0.2c0,0.1-0.1,0.3-0.1,0.4l6,5c-0.1,0.5-0.2,1-0.2,1.5c-0.1,0.9-0.2,1.8-0.3,2.7
					l-7.5,3.4c0,0.3,0,0.6,0,0.9l0,0c0,1.7,0.2,3.4,0.4,5.1c0.2,1.6,0.5,3.1,0.8,4.6l8.1,1.4c0.5,1.4,1,2.7,1.6,4l-4.5,6.2
					c0.1,0.2,0.2,0.3,0.3,0.5l-0.3,0.4c0.1,0.1,0.2,0.2,0.2,0.4l-0.2,0.2c1.6,2.6,3.5,5.1,5.6,7.3l7.7-2.9c1.3,1.1,2.6,2.2,4.1,3.2
					l-0.7,6.9c0,0,0.1,0,0.1,0.1l-0.1,0.8c0,0,0.1,0,0.1,0.1l-0.1,0.5c2.7,1.5,5.5,2.7,8.5,3.6l5.3-6.3c0.9,0.2,1.8,0.4,2.7,0.5
					c0.9,0.1,1.8,0.2,2.7,0.3l3.4,7.5c3.1-0.1,6.2-0.5,9.1-1.2l1.4-8.1c1.7-0.6,3.4-1.3,5-2.1L95.3,193.8z M64.7,155.4
					c0-0.3,0-0.6,0.1-0.8c0.6-4.1,4.3-6.9,8.4-6.4c3.3,0.4,5.7,2.9,6.3,6c0,0.1,0,0.1,0,0.2c0,0.2,0,0.5-0.1,0.7
					c-0.6,4.1-4.3,6.9-8.4,6.4C67.7,161.1,65.2,158.6,64.7,155.4z"/>
				<path class="st11" d="M151,106.5c2-1.8,3.7-4,5-6.5l8.7-1.7c0.4-1.4,0.8-2.9,1-4.4c0.2-1.5,0.3-3,0.2-4.5l-0.1,0
					c0-0.2,0-0.4,0-0.5l0,0c0-0.3,0-0.6,0-0.9l-7.9-4c-0.5-2.5-1.4-4.8-2.7-6.9l2.6-7.6c-0.1-0.1-0.1-0.1-0.2-0.2l0.1-0.4
					c-0.1-0.1-0.2-0.2-0.2-0.2l0.2-0.6c-2.1-2.2-4.5-4.1-7.2-5.6l-7.4,4.8c-1.3-0.4-2.6-0.8-4-0.9c-1.4-0.2-2.8-0.2-4.1-0.2
					l-5.8-6.6c-3,0.7-5.8,1.9-8.4,3.4l0,0.9c0,0,0,0,0,0l0.4,8c-2,1.8-3.7,4-5,6.4l-8.7,1.7c-0.4,1.4-0.8,2.9-1,4.4
					c-0.2,1.5-0.3,3-0.2,4.5l0,0c0,0.3,0,0.6,0,0.9l0.1,0c0,0.2,0,0.4,0,0.5l7.9,4c0.5,2.5,1.4,4.8,2.7,6.9l-2.6,7.6
					c0.1,0.1,0.2,0.2,0.2,0.2l-0.2,0.6c0.1,0.1,0.1,0.1,0.2,0.2l-0.1,0.4c2.1,2.2,4.5,4.1,7.2,5.6l7.4-4.8c1.3,0.4,2.6,0.8,4,0.9
					c1.4,0.2,2.8,0.2,4.1,0.2l5.8,6.6c3-0.7,5.8-1.9,8.4-3.4L151,106.5z M128.6,89.7c0-0.3,0-0.5,0.1-0.8c0.6-4.1,4.3-6.9,8.4-6.4
					c3.3,0.4,5.7,2.9,6.3,6c0,0.1,0,0.1,0,0.2c0,0.2,0,0.5-0.1,0.7c-0.6,4.1-4.3,6.9-8.4,6.4C131.7,95.3,129.2,92.8,128.6,89.7z"/>
				<path class="st3" d="M279.1,282.8l15.6,10.6c2.8-2.7,5.5-5.6,8-8.5l-0.3-0.4c0.1-0.1,0.2-0.2,0.2-0.3l-0.4-0.6
					c0.1-0.2,0.3-0.3,0.4-0.5l-10.9-13.9c1.1-1.5,2.2-2.9,3.2-4.5l17.8,6.2c2-3.3,3.9-6.8,5.5-10.3l-0.3-0.2
					c0.1-0.2,0.2-0.3,0.2-0.5l-0.4-0.3c0.1-0.3,0.2-0.5,0.4-0.7L303.7,248c0.6-1.6,1.2-3.2,1.8-4.8l18.8,1.3
					c1.1-3.7,1.9-7.5,2.6-11.4l-0.2-0.1c0-0.2,0.1-0.4,0.1-0.6l-0.2-0.1c0.1-0.3,0.1-0.6,0.2-1l-17.1-6.9c0.2-1.6,0.3-3.2,0.4-4.8
					l18.5-3.6c0.1-3.9,0-7.8-0.4-11.7l0,0c0-0.6-0.1-1.2-0.1-1.7l-18.7-2.3c-0.2-1.6-0.5-3.2-0.7-4.7l16.8-8.2
					c-0.1-0.2-0.1-0.4-0.2-0.7l0.1,0c-0.1-0.3-0.2-0.6-0.2-0.9l0.2-0.1c-0.9-3.8-2.1-7.5-3.4-11.2l-18.7,2.6
					c-0.6-1.5-1.3-3.1-2.1-4.6l13.8-11.9c-0.1-0.2-0.2-0.4-0.3-0.5l0.2-0.2c-0.1-0.2-0.3-0.5-0.4-0.7l0.4-0.3
					c-1.9-3.4-3.9-6.7-6.2-9.9l-17.4,7.4c-0.7-0.9-1.3-1.7-2-2.6c-0.4-0.5-0.9-1.1-1.4-1.6l10-14.7c-0.1-0.1-0.2-0.2-0.3-0.3
					l0.2-0.4c-0.1-0.2-0.3-0.3-0.4-0.4l0.4-0.6c-2.7-2.8-5.6-5.5-8.5-8l-14.9,11.6c-1.5-1.2-3.1-2.3-4.7-3.4l5.7-16.5
					c-0.1-0.1-0.2-0.1-0.3-0.2l0.2-0.5c-0.1-0.1-0.2-0.1-0.3-0.2l0.3-0.9c-3.3-2-6.8-3.9-10.3-5.5l-11.4,15.1
					c-1.9-0.8-3.9-1.5-5.8-2.2l1.2-17.1c0,0-0.1,0-0.1,0l0-0.7c0,0-0.1,0-0.1,0l0.1-1c-3.8-1.1-7.6-1.9-11.4-2.6l-7.1,17.5
					c-2.1-0.3-4.3-0.5-6.4-0.6l-3.6-18.5c-3.9-0.1-7.8,0-11.7,0.4l-2.3,18.7c-2.1,0.3-4.3,0.6-6.4,1.1l-8.2-17
					c-3.8,0.9-7.5,2.1-11.2,3.4l0.1,1c0,0-0.1,0-0.1,0l2.5,17.7c-2,0.8-3.9,1.7-5.8,2.7l-12.4-14.3c-3.4,1.9-6.7,3.9-9.9,6.2
					l0.3,0.8c-0.1,0.1-0.2,0.1-0.3,0.2l0.3,0.6c0,0-0.1,0.1-0.2,0.1l6.8,16c-0.7,0.5-1.4,1.1-2.1,1.6c-0.8,0.7-1.6,1.4-2.4,2.1
					l-15.6-10.6c-2.8,2.7-5.5,5.6-8,8.5l0.4,0.6c-0.1,0.2-0.3,0.3-0.4,0.5l0.3,0.4c-0.1,0.1-0.2,0.2-0.2,0.3l10.9,13.9
					c-1.1,1.5-2.2,2.9-3.2,4.5l-17.8-6.2c-2,3.3-3.9,6.8-5.5,10.3l0.4,0.3c-0.1,0.2-0.2,0.5-0.4,0.7l0.3,0.2
					c-0.1,0.2-0.2,0.3-0.2,0.5l14.4,10.9c-0.6,1.6-1.2,3.2-1.8,4.8l-18.8-1.3c-1.1,3.8-1.9,7.6-2.6,11.4l0.2,0.1
					c-0.1,0.3-0.1,0.6-0.2,1l0.2,0.1c0,0.2-0.1,0.4-0.1,0.6l17.1,6.9c-0.2,1.6-0.3,3.2-0.4,4.8l-18.5,3.6c0,2.1,0,4.1,0,6.2
					c0.1,2.2,0.2,4.3,0.4,6.5l0.1,0c0,0.2,0,0.5,0.1,0.7l18.7,2.3c0.2,1.6,0.5,3.2,0.7,4.7l-16.8,8.2c0.1,0.3,0.2,0.6,0.2,0.9
					l-0.2,0.1c0.1,0.2,0.1,0.4,0.2,0.7l-0.1,0c0.9,3.8,2.1,7.5,3.4,11.2l18.7-2.6c0.6,1.5,1.3,3.1,2.1,4.6l-13.8,11.9
					c0.1,0.2,0.3,0.5,0.4,0.7l-0.4,0.3c0.1,0.2,0.2,0.4,0.3,0.5l-0.2,0.2c1.9,3.4,3.9,6.7,6.2,9.9l17.4-7.4c0.7,0.9,1.3,1.7,2,2.6
					c0.5,0.5,0.9,1.1,1.4,1.6l-10,14.7c0.1,0.1,0.3,0.3,0.4,0.4l-0.4,0.6c0.1,0.1,0.2,0.2,0.3,0.3l-0.2,0.4c2.7,2.8,5.6,5.5,8.5,8
					l14.9-11.6c1.5,1.2,3.1,2.3,4.7,3.4l-5.7,16.5c0.1,0.1,0.2,0.1,0.3,0.2l-0.3,0.9c0.1,0.1,0.2,0.1,0.3,0.2l-0.2,0.5
					c3.4,2,6.8,3.9,10.3,5.5l11.4-15.1c1.9,0.8,3.9,1.5,5.8,2.2l-1.2,17.1c0,0,0.1,0,0.1,0l-0.1,1c0.1,0,0.1,0,0.1,0l0,0.7
					c3.8,1.1,7.5,1.9,11.4,2.6l7.1-17.5c2.1,0.3,4.3,0.5,6.4,0.6l3.6,18.5c3.9,0.1,7.8,0,11.7-0.4l2.3-18.7c2.1-0.3,4.3-0.6,6.4-1.1
					l8.2,17c3.8-0.9,7.5-2.1,11.2-3.4l-0.2-1.7c0,0,0.1,0,0.1,0l-2.4-17c2-0.8,3.9-1.7,5.8-2.7l12.4,14.3c3.4-1.9,6.7-3.9,9.9-6.2
					l-0.3-0.6c0.1,0,0.1-0.1,0.2-0.1l-0.3-0.8c0.1-0.1,0.2-0.1,0.3-0.2l-6.8-16c0.7-0.5,1.4-1.1,2.1-1.6
					C277.5,284.3,278.3,283.6,279.1,282.8z M258.1,260.8c-26.8,22-66.5,18.2-88.5-8.6c-5.5-6.6-9.3-14.1-11.7-21.9
					c-6.2-23,1.1-48.5,20.6-64.6c26.6-21.9,66.1-18.1,88,8.6c9.5,11.6,14.2,25.6,14.2,39.6c0,3.7-0.4,7.3-1.1,10.9
					C276.9,238.4,269.7,251.2,258.1,260.8z"/>
				<path class="st10" d="M419.8,226.5l13.2,9.8c2.1-1.9,4-3.9,5.7-6l-0.3-0.3c0.1-0.1,0.2-0.2,0.2-0.3l-0.3-0.4
					c0.1-0.2,0.3-0.3,0.4-0.4l-9.8-12.1c1-1.5,2-3,2.9-4.6l15.9,4c1.2-2.5,2.2-5.1,3-7.7l-0.2-0.1c0.1-0.2,0.1-0.3,0.2-0.5l-0.2-0.1
					c0.1-0.3,0.2-0.5,0.3-0.8l-14.1-7.7c0.4-1.6,0.6-3.3,0.8-4.9l16.2-2.4c0.1-1.5,0.1-2.9,0-4.4c0-1.8,0-3.6-0.2-5.4l-16.3-1.7
					c-0.3-1.7-0.6-3.3-1-4.9l13.7-8.3c-0.1-0.2-0.1-0.3-0.2-0.5l0.2-0.1c-0.1-0.2-0.2-0.5-0.3-0.7l0.3-0.2c-0.9-2.6-2-5.1-3.3-7.6
					l-15.8,4.6c-0.5-0.9-1.1-1.8-1.7-2.7c-0.4-0.6-0.9-1.2-1.4-1.8l9.2-12.5c-0.1-0.1-0.2-0.2-0.3-0.3l0.2-0.3
					c-0.1-0.1-0.2-0.2-0.3-0.4l0.4-0.5c-1.9-2.1-3.9-4-6-5.7l-12.8,10.3c-1.6-1.2-3.3-2.3-5.1-3.2l3.6-14.6c-0.1,0-0.1,0-0.2-0.1
					l0.1-0.5c-0.1,0-0.1,0-0.2-0.1l0.2-0.8c-2.5-1.2-5.1-2.2-7.7-3l-7.8,14.4c-2.1-0.5-4.2-0.9-6.3-1.1l-2.4-16.2
					c-2.8-0.1-5.5-0.1-8.3,0.2l-1.7,16.3c-2.1,0.3-4.2,0.8-6.2,1.4l-8.5-14.1c-2.6,0.9-5.1,2-7.6,3.3l0.2,0.7
					c-0.1,0-0.2,0.1-0.3,0.1l0.2,0.5c0,0-0.1,0-0.1,0.1l4.3,14.5c-0.8,0.5-1.6,0.9-2.3,1.5c-0.9,0.6-1.7,1.3-2.5,2l-13.2-9.8
					c-2.1,1.9-4,3.9-5.7,6l0.3,0.4c-0.1,0.2-0.3,0.3-0.4,0.4l0.3,0.3c-0.1,0.1-0.2,0.2-0.2,0.3l9.8,12.1c-1,1.5-2,3-2.9,4.6l-15.9-4
					c-1.2,2.5-2.2,5.1-3,7.7l0.2,0.1c-0.1,0.3-0.2,0.5-0.3,0.8l0.2,0.1c-0.1,0.2-0.1,0.3-0.2,0.5l14.1,7.7c-0.4,1.6-0.6,3.3-0.8,4.9
					l-16.2,2.4c0,0.3,0,0.6,0,0.9l0,0c-0.1,2.8-0.1,5.5,0.2,8.3h0c0,0.2,0,0.4,0,0.6l16.3,1.7c0.3,1.7,0.6,3.3,1,4.9l-13.7,8.3
					c0.1,0.2,0.2,0.5,0.3,0.7l-0.3,0.2c0.1,0.2,0.1,0.3,0.2,0.5l-0.2,0.1c0.9,2.6,2,5.1,3.3,7.6l15.8-4.6c0.5,0.9,1.1,1.8,1.7,2.7
					c0.4,0.6,0.9,1.2,1.4,1.8l-9.2,12.5c0.1,0.1,0.2,0.2,0.3,0.4l-0.4,0.5c0.1,0.1,0.2,0.2,0.3,0.3l-0.2,0.3c1.9,2.1,3.9,4,6,5.7
					l12.8-10.3c1.6,1.2,3.3,2.3,5.1,3.2l-3.6,14.6c0.1,0,0.1,0,0.2,0.1l-0.2,0.8c0.1,0,0.1,0,0.2,0.1l-0.1,0.5
					c2.5,1.2,5.1,2.2,7.7,3l7.8-14.4c2.1,0.5,4.2,0.9,6.3,1.1l2.4,16.2c2.8,0.1,5.5,0.1,8.3-0.2l1.7-16.3c2.1-0.3,4.2-0.8,6.2-1.4
					l8.5,14.1c2.6-0.9,5.1-2,7.6-3.3l-0.2-0.5c0,0,0.1,0,0.1-0.1l-0.2-0.7c0.1,0,0.2-0.1,0.3-0.1l-4.3-14.5c0.8-0.5,1.6-0.9,2.3-1.5
					C418.1,227.8,418.9,227.2,419.8,226.5z M411.7,219.1c-17.4,12.2-41.4,7.9-53.6-9.5c-4.5-6.5-6.8-13.9-6.9-21.3
					c0.2-11.9,5.9-23.5,16.4-30.9c17.4-12.2,41.4-7.9,53.6,9.5c4.1,5.9,6.4,12.5,6.8,19.2c0.1,1.1,0.1,2.2,0,3.3
					C427.5,201,421.8,212,411.7,219.1z"/>
				<path class="st9" d="M345.4,137.9c2.3-1.3,4.5-3,6.5-4.8l-0.2-0.5c0.1,0,0.1-0.1,0.2-0.1l-0.3-0.6c0.1-0.1,0.2-0.2,0.3-0.3
					l-5.8-10.8c0.4-0.6,0.9-1.2,1.3-1.8c0.5-0.8,0.9-1.7,1.3-2.6l13.3,0.1c0.7-2.7,1.1-5.3,1.2-8l-0.1,0c0-0.2,0-0.4,0-0.6l-0.1,0
					c0-0.3,0-0.6,0.1-0.9l-12.8-3.9c-0.2-1.5-0.5-3-1-4.4l9.2-9.1c-0.1-0.1-0.2-0.3-0.3-0.4l0.2-0.2c-0.1-0.2-0.2-0.4-0.3-0.6
					l0.3-0.3c-1.3-2.3-3-4.5-4.8-6.5l-11.8,6.3c-0.8-0.6-1.5-1.2-2.4-1.7c-0.8-0.5-1.6-0.9-2.5-1.3l0.1-11.9c0,0-0.1,0-0.1,0l0-0.6
					c0,0,0,0,0,0l0-0.9c-2.7-0.7-5.3-1.1-8-1.2l-3.9,12.8c-1.9,0.2-3.8,0.7-5.6,1.4l-9.4-9.5c-2.3,1.3-4.5,3-6.5,4.8l0.3,0.6
					c-0.1,0.1-0.2,0.2-0.3,0.3l0.2,0.5c0,0-0.1,0.1-0.2,0.1l5.8,10.8c-0.4,0.6-0.9,1.2-1.3,1.8c-0.5,0.8-0.9,1.7-1.3,2.6l-13.3-0.1
					c-0.7,2.7-1.1,5.3-1.2,8l0.1,0c0,0.3,0,0.6-0.1,0.9l0.1,0c0,0.2,0,0.4,0,0.6l12.8,3.9c0.2,1.5,0.5,3,1,4.4l-9.2,9.1
					c0.1,0.2,0.2,0.4,0.3,0.6l-0.3,0.3c0.1,0.1,0.2,0.3,0.3,0.4l-0.2,0.2c1.3,2.3,3,4.5,4.8,6.5l11.8-6.3c0.7,0.6,1.5,1.2,2.4,1.7
					c0.8,0.5,1.6,0.9,2.5,1.3l-0.1,11.9c0,0,0,0,0,0l0,0.9c0,0,0.1,0,0.1,0l0,0.6c2.6,0.7,5.3,1.1,8,1.2l3.9-12.8
					c1.9-0.2,3.8-0.7,5.6-1.4L345.4,137.9z M312.6,107.6c-0.1-2.8,0.6-5.6,2.2-8.2c4.3-7.2,13.7-9.5,20.8-5.2
					c4,2.4,6.4,6.3,7.1,10.5c0,0.3,0.1,0.6,0.1,0.9c0,2.7-0.7,5.5-2.2,8c-4.3,7.2-13.7,9.5-20.8,5.2
					C315.7,116.3,313.2,112.1,312.6,107.6z"/>
				<path class="st11" d="M474.9,166.4l-0.1-0.8c0,0,0.1,0,0.1,0l-1.3-8.3c0.6-0.4,1.1-0.7,1.6-1.2c0.6-0.5,1.1-0.9,1.5-1.5l9.2,3.3
					c1.1-1.7,2.1-3.4,2.8-5.2l-0.3-0.2c0.1-0.1,0.1-0.3,0.2-0.4l-0.3-0.2c0.1-0.2,0.2-0.4,0.3-0.7l-7.6-5.6c0.1-1,0.2-2,0.2-3
					l8.8-4.2c0-0.2-0.1-0.4-0.1-0.6l0,0c0-0.3-0.1-0.5-0.2-0.8l0.1-0.1c-0.3-1.9-0.9-3.9-1.7-5.7l-9.7,1.5c-0.4-0.6-0.8-1.2-1.2-1.7
					c-0.3-0.4-0.6-0.7-1-1.1l3-8.2c-0.1-0.1-0.2-0.1-0.2-0.2l0.2-0.4c-0.1-0.1-0.2-0.1-0.3-0.2l0.3-0.7c-1.7-1.1-3.4-2.1-5.2-2.8
					l-5.8,7.9c-1.4-0.3-2.8-0.4-4.2-0.4l-4.2-8.9c-1.9,0.4-3.8,0.9-5.7,1.7l0.1,0.8c0,0-0.1,0-0.1,0l0.1,0.6c0,0,0,0,0,0l1.3,8.3
					c-0.6,0.4-1.1,0.7-1.6,1.2c-0.6,0.5-1.1,0.9-1.5,1.5l-9.2-3.3c-1.1,1.7-2.1,3.4-2.8,5.2l0.3,0.2c-0.1,0.2-0.2,0.4-0.3,0.7
					l0.3,0.2c-0.1,0.1-0.1,0.3-0.2,0.4l7.6,5.6c-0.1,1-0.2,2-0.2,3l-8.9,4.2c0,0.3,0.1,0.5,0.2,0.8l-0.1,0.1c0,0.2,0.1,0.4,0.1,0.6
					l0,0c0.4,1.9,0.9,3.8,1.7,5.7l9.7-1.5c0.4,0.6,0.8,1.2,1.2,1.7c0.3,0.4,0.6,0.7,1,1.1l-3,8.2c0.1,0.1,0.2,0.1,0.3,0.2l-0.3,0.7
					c0.1,0.1,0.2,0.1,0.2,0.2l-0.2,0.4c1.7,1.1,3.4,2.1,5.2,2.8l5.8-7.9c1.4,0.3,2.8,0.5,4.2,0.4l4.2,8.9c1.9-0.4,3.8-0.9,5.7-1.7
					L474.9,166.4C474.9,166.4,474.9,166.4,474.9,166.4z M462.3,140.3c1.6-1.3,3.9-1.1,5.2,0.5c0.3,0.4,0.6,0.9,0.7,1.3
					c-0.1,0.9-0.6,1.8-1.3,2.4c-1.6,1.3-3.9,1.1-5.2-0.5c-0.3-0.4-0.6-0.9-0.7-1.3C461.1,141.8,461.5,141,462.3,140.3z"/>
			</g>
			<g>
				<g>
					<path class="st11" d="M182,149c0,0,0.9,5.6,0.4,7c-0.5,1.4-5.7,7.8-4.5,10.9c1.3,3.4,9.2-3.1,11.5-4.1c2.3-1,1.8-2.9,2-5.2
						c0.2-2.3,1.4-2.3,0.9-3.9c-0.4-1.6-4.2-7.1-4.2-7.1L182,149z"/>
				</g>
				<g>
					<path class="st11" d="M208.9,150.5c0,0,2,4.8,3.7,7.3c1.7,2.5,10.3,4.9,10.5,8.3c0.2,3.4-10.3,1.3-13.5,0.2
						c-3.3-1.1-3.7-4.4-5.7-5.3c-2-0.8-3-1.5-2.8-3.1c0.2-1.6,1.1-7.4,1.1-7.4s1.5-0.1,2.2,0C205,150.5,207.2,151,208.9,150.5z"/>
				</g>
				<g>
					<path class="st10" d="M186.7,61.2c0,0,1.3,7.4,2.3,12.3l0,0c0.4,2,0.8,3.6,1,4.1c0.3,0.6,2.6,3.1,5.5,6.1
						c5,5.2,11.7,11.7,11.7,11.7l2.6-4.9c0,0-5.9-6.9-9.9-11.5c-1.9-2.1-3.3-3.8-3.6-4c-0.8-0.8-1.8-8.1-3.2-14.2
						c-1.4-6.1-4.1-9.4-4.1-9.4L186.7,61.2z"/>
				</g>
				<g>
					<path class="st4" d="M195.5,83.7c5,5.2,11.7,11.7,11.7,11.7l2.6-4.9c0,0-5.9-6.9-9.9-11.5C198.6,79.5,196.4,81,195.5,83.7z"/>
				</g>
				<g>
					<path class="st10" d="M162.9,94.4c-0.2,0.7,34.2,0,34.2,0s-9.5-6.9-10.1-8.8c-0.6-1.8,2.4-12.9,2.8-16.6
						c0.3-2.9,1.1-15.8-0.8-17.8c-2-2.1-9.2-4.2-9.2-4.2l-10.5,0.4c0,0-1.7,0.4-3,0.9c-1.2,0.6-8.3,3.1-9.4,6.6
						c-1.1,3.5,7,14.9,7,14.9s0,0.5,0,1.3l0,0c0,1.1,0.1,2.8,0.1,4.6c0.1,2.4,0.1,5,0.1,6.9C164.3,87.2,163.1,93.7,162.9,94.4z"/>
				</g>
				<g>
					<path class="st1" d="M162.9,94.4c0,0-4.7,6.9-4.7,11.6c-0.1,4.7,8.3,20.4,9.6,22.6c3.8,6.8,14.2,21.3,14.2,21.3s1.8,0,7.4-2.2
						c0,0-6.9-19.3-7.8-21.3c-3.7-8.5-5.8-14.5-4.6-15.9c1.3-1.5,4.7-2.9,5.7-3.8c1-0.9,18.3,3.3,20.1,3.7c4.7,1.2,2.6,9.4,1.5,13
						c-1.7,6.1-3.2,28.2-3.2,28.2s3.3,1.4,8.9,0.2c0,0,11-39.9,11.3-43.8c0.3-4,0.5-10.5-26.5-15.5L162.9,94.4z"/>
				</g>
				<g>
					<path class="st4" d="M177,24.3c0,0,9.1-2,7,9.4c-2.1,11.4-4.3,12.3-9.7,10c-5.5-2.4-5-9.7-5.3-13.3
						C168.7,26.8,174.1,24.4,177,24.3z"/>
				</g>
				<g>
					<path class="st4" d="M179.4,50c0,0-4,4.3-10.4,0.4c0,0,1.4-9.2,0.7-13.7c-0.7-4.5,8.3,7,8.3,7c-0.1,0.1-0.2,0.5-0.2,1.1
						c0,0.5,0,1.2,0.1,1.8C178,48,178.5,49.6,179.4,50z"/>
				</g>
				<g>
					<path class="st9" d="M169.4,36.2c0,0,0.2-3.6,1.5-3.7c1.3-0.1,1.5,1.3,1.5,1.3l1.3,0.3c0,0-0.4-3.2,0.9-3.7
						c1.3-0.6,8.5,1.7,9.6,0.8c1.1-0.9,3.2-8.8,1.1-8.6c-8.4,0.8-9.7-2.4-13.5,0.2c0,0-3-0.3-3.4,2.1
						C168,27.3,168.6,34.4,169.4,36.2z"/>
				</g>
				<g>
					<path class="st6" d="M177.8,46.5c-6.6-2-7-6-7.1-6c2.2,3.7,7,4.2,7,4.2C177.7,45.2,177.7,45.8,177.8,46.5z"/>
				</g>
				<g>
					<path class="st10" d="M166.3,48.4c0,0,4.8,9.6,12.6,8.9c7.8-0.6,1.3-10.2,1-10.3C179.4,46.9,171.9,45,166.3,48.4z"/>
				</g>
				<g>
					<path class="st1" d="M201,93.9c0,0-23.8,2.9-38.1,0.5l27.5-3.4C190.4,91,190.5,91.7,201,93.9z"/>
				</g>
				<g>
					<path class="st5" d="M183.3,89.9l1.8,0.9c0,0-0.4,2.8-1.4,3.7l-2-0.5C181.7,93.9,182.1,90.8,183.3,89.9z"/>
				</g>
				<g>
					<path class="st10" d="M164.1,71.2L164.1,71.2c0,1.1,0.1,2.8,0.1,4.6c3.2-7.9,1.4-14.2,1.3-14.3C165.9,63.6,164.1,71,164.1,71.2
						z"/>
				</g>
				<g>
					<path class="st10" d="M189,73.5L189,73.5c0.4,2,0.8,3.6,1,4.1c1.1-5.3,0.1-12.2,0.1-12.2C189.9,68.7,189,73.5,189,73.5z"/>
				</g>
				<g>
					<polygon class="st12" points="183.8,94.2 217.5,93.7 200.5,102.3 					"/>
				</g>
				<g>
					<polygon class="st11" points="200.5,102.3 183.8,95.8 183.8,94.2 201.8,100.7 					"/>
				</g>
				<g>
					<g>
						<path class="st10" d="M155.8,84.1c0.4,0.4,5,2.3,10.3,4.3h0c7.2,2.8,15.3,5.4,15.3,5.4l1.8-4c0,0-8.5-4.6-14.3-7.9
							c-2.7-1.5-4.8-2.8-5.1-3c-0.9-0.9-1.2-2.3-0.5-4.8c0.7-2.5,2.2-13.8,2.4-15.1c0.2-1.3-0.4-4.8-3.7-5c-3.3-0.2-5,0.8-5,0.8
							s-0.8,0.3-1.4,8.4C155,71.2,154.9,83.1,155.8,84.1z"/>
					</g>
					<g>
						<path class="st4" d="M166.1,88.4L166.1,88.4c7.2,2.8,15.6,5.5,15.6,5.5l1.6-4c0,0-8.5-4.6-14.3-7.9
							C169,82,166.9,83,166.1,88.4z"/>
					</g>
					<g>
						<g>
							<path class="st4" d="M184.7,90.8c0,0,2.1-0.3,3.6-0.7c1.1-0.3,3.9,0.1,4.6,0.8c0.7,0.7,3,5.8,3.4,6.1c0.4,0.3-0.2,1-1,0.7
								c0,0-0.7,2.2-2.4,1.4c-1.7-0.8-2.9-2.6-3.8-2.9c-0.9-0.3-6.1-1.9-6.1-1.9S183.3,90.3,184.7,90.8z"/>
						</g>
					</g>
					<g>
						<g>
							<path class="st4" d="M192.4,90.7c0,0,1.4,0.7,1.7,0.9c0.4,0.3,1.8,1.4,2.1,1.6c0.3,0.3-0.5,1-3.1-0.1
								C190.5,92,192.4,90.7,192.4,90.7z"/>
						</g>
					</g>
				</g>
				<g>
					<polygon class="st11" points="200.5,102.3 210.5,74.9 242.9,75.4 233.3,100.7 					"/>
				</g>
				<g>
					
						<ellipse transform="matrix(0.4469 -0.8946 0.8946 0.4469 44.5871 248.6153)" class="st1" cx="223.3" cy="88.3" rx="4" ry="2.7"/>
				</g>
				<g>
					<path class="st5" d="M172.5,32.3c-0.1-1-2.1-1.4-2.3,0.1c-0.2,1.5,0.9,4.2,1.7,3.9S172.6,33.7,172.5,32.3z"/>
				</g>
			</g>
			<path class="st7" d="M115.4,256.5c0,0-0.3-0.5-0.8-1.1c-0.8-0.9-2.1-2.1-3.8-2.5c0,0-6.3,7-9.1,9.4c-0.2,0.2-0.5,0.4-0.8,0.6
				c0,0-0.1,0.1-0.2,0.2c-2.2,1.7-5.3,3.8-7.7,6.2c-3.5-6.5-9.7-20.3-15.3-23.1l0,0c-1.4-0.7-2.7-0.7-4,0.2c0,0-6.2,6.3,1,17.5
				c2.5,3.9,5.5,7,8.2,9.3c3.1,2.6,6,4.3,7.8,5.2h0c0,0,2.7,1.8,4.8,1.2c2.1-0.6,3.9-2.9,3.9-2.9h0
				C104.7,271.6,115.4,256.5,115.4,256.5"/>
			<g>
				<g>
					<path class="st4" d="M116.1,247.5c0,0,4.6-5.1,5.2-5.1c0.6-0.1,0.8,0.2,0.4,0.7c-0.4,0.5-4.3,5-4.3,5s6.4-5,6.9-5.2
						c0.3-0.1,0.8,0.4,0.6,0.7c-0.2,0.3-6.3,5.6-6.3,5.6s6-4.7,6.4-4.7c0.4,0,0.7,0.6,0.3,1c-0.4,0.4-5.8,5-5.8,5s4.6-3.1,5-2.9
						c0.2,0.1,0.7,0.6-0.5,1.3c-1.2,0.8-3.9,2.9-3.9,2.9L116.1,247.5z"/>
				</g>
				<g>
					<g>
						<path class="st4" d="M111.6,254.2c0,0,1.4-1.8,0.9-3c-0.4-1-0.3-2.7-0.3-3.3c0-0.7-0.5-2.9,0.3-2.8c0.8,0.1,1.1,3.6,1.3,4.3
							c0.2,0.7,1.9-2.1,2.6-2.3c0.7-0.2,4.9,3.2,3.5,4.9c-1.4,1.8-4,2.6-4.2,3c-0.2,0.4-1,1.3-1,1.3L111.6,254.2z"/>
					</g>
				</g>
			</g>
			<g>
				<g>
					<path class="st13" d="M411.8,246.1c0,0-6-3.3-6.6-3.2c-0.6,0.1-0.7,0.5-0.2,0.8c0.5,0.3,5.7,3.4,5.7,3.4s-7.7-2.7-8.2-2.7
						c-0.3,0-0.6,0.7-0.3,0.9c0.3,0.2,7.8,3.3,7.8,3.3s-7.2-2.5-7.6-2.4c-0.4,0.1-0.5,0.8,0,1c0.5,0.2,7.1,2.9,7.1,2.9
						s-5.3-1.5-5.6-1.1c-0.2,0.2-0.5,0.8,0.9,1.1c1.4,0.3,4.6,1.5,4.6,1.5L411.8,246.1z"/>
				</g>
				<g>
					<g>
						<path class="st13" d="M418.2,251.1c0,0-1.9-1.2-1.8-2.6c0.1-1.1-0.6-2.7-0.8-3.2c-0.3-0.6-0.4-2.9-1.2-2.6
							c-0.8,0.3,0.1,3.8,0.1,4.5c0,0.8-2.5-1.3-3.2-1.3c-0.7,0-3.6,4.6-1.7,5.8c1.9,1.2,4.6,1.2,4.9,1.5c0.3,0.3,1.3,0.9,1.3,0.9
							L418.2,251.1z"/>
					</g>
				</g>
			</g>
			<g>
				<path class="st9" d="M420.5,393.1c0,0-4.5,6-3.9,7c0.6,1,5.3,1.1,8.2,0c2.9-1.1,2.9-8.1,4.2-11.2c0.5-1.3-0.6-5-2.2-5.3
					c-1.6-0.3-3.4,0.5-3.4,0.5S425.1,388.4,420.5,393.1z"/>
			</g>
			<g>
				<g>
					<path class="st13" d="M423.4,384.1c0,0-0.9,2.6-1.3,5c-0.3,2-3.2,6.3-3,6.9c0.1,0.5,3.8,1,5.3-0.4c1.5-1.4,2.5-5.5,2.8-7.9
						c0.3-2.3,0.7-3.4,0.7-3.4S424.8,382.6,423.4,384.1z"/>
				</g>
			</g>
			<g>
				<path class="st9" d="M459.4,393.2c0,0-4.3,5.9-3.7,6.9c0.6,1,5.3,1.1,8.2,0c2.9-1.1,2.9-8.1,4.2-11.2c0.5-1.3-0.6-5-2.2-5.3
					c-1.6-0.3-3.5,0.6-3.5,0.6S464,388.5,459.4,393.2z"/>
			</g>
			<g>
				<g>
					<path class="st13" d="M462.3,384.2c0,0-0.3,2.8-0.9,4.8c-0.5,2-3.5,6.5-3.3,7c0.1,0.5,3.8,1,5.3-0.4c1.5-1.4,2.7-5.5,2.8-7.9
						c0.1-2.5-0.3-4.1-0.3-4.1S463.7,382.7,462.3,384.2z"/>
				</g>
			</g>
			<g>
				<polygon class="st9" points="429.2,388.3 429.2,394.6 428.4,394.6 428.4,389.8 				"/>
			</g>
			<g>
				<polygon class="st9" points="468.2,388.3 468.2,394.6 467.4,394.6 467.4,389.8 				"/>
			</g>
			<ellipse transform="matrix(0.5929 -0.8053 0.8053 0.5929 4.8712 466.3567)" class="st1" cx="463.7" cy="228.4" rx="6" ry="4.7"/>
			<g>
				<g>
					<path class="st13" d="M440.8,286.4c0,0-3.8,17.8-4.7,22.3c-0.9,4.5-3.3,26.2-3.6,29.9c-0.3,3.7-4,17.6-3.8,18.9
						c0.2,1.3-5.5,27.8-5.5,27.8s1.9,1.6,4,0.1c1.1-0.7,12.5-24.8,12.5-31.4c0-9.1,6.7-21,7.6-23.1c8.1-19,6.5-24.7,7.5-26
						c1.1-1.2,1.1,0.8,1.8,3.5c0.6,2.7,1.9,26.3,2.7,29.3c0.8,3,0.2,13.1,0.6,18.2c0.4,5.1,2.4,28.2,2.4,28.2s1.5,2.3,3.6,0.1
						c0.5-0.5,3.6-25.7,3.7-31.8c0.1-6.1,0.2-14.4,0.3-17.1c1.6-25.2,5.6-28.7-0.7-46.5C457.5,255.5,440.8,286.4,440.8,286.4z"/>
				</g>
			</g>
			<g>
				<path class="st3" d="M466.5,281.4c0,0,10.9,15.3,6.2,47.8c0,0-25.9,3.5-39.7-4.1c0,0,5.7-33.5,7.8-38.7
					C442.9,281.1,466.5,281.4,466.5,281.4z"/>
			</g>
			<g>
				<path class="st1" d="M451.9,238c0,0-4.7,2-6.1,2.2c-1.4,0.3-6.1,7.2-7.1,9.8c-1,2.6,0,6.4,2,10.9c2,4.5,0.1,6,1,10.6
					c0.9,4.5-2,14.2-2.2,16.7c-0.2,2.5,26.2,2.9,31.4-1.7c0,0-5.2-7.8-5.9-8.9c-0.7-1.1-0.1-7.2,0.5-8.8c0.6-1.6,4.7-14.9,4.7-14.9
					s3.3-10.2,0.3-12.6c-2.6-2-9.8-2.8-11.1-3.2C458.2,237.8,454.5,237.6,451.9,238z"/>
			</g>
			<g>
				<path class="st13" d="M450,233.3c0,0,0.1,1,0.2,2.4c0.1,0.6,0.1,1.3,0.2,2c0.2,2,0.3,4.2,0.2,5.3c0,0,4.2,4.2,8.9-4.9
					c0,0-2-3.7-0.5-8.8C460.5,224.3,450,233.3,450,233.3z"/>
			</g>
			<g>
				<g>
					<g>
						<path class="st13" d="M455.4,210.1c0,0-9.8-0.3-10.4,16.6c-0.6,16.9,17.5,4.2,19.5-5.6C466.5,211.4,455.4,210.1,455.4,210.1z"
							/>
					</g>
				</g>
			</g>
			<g>
				<g>
					<g>
						<path class="st1" d="M447.3,217.3c0,0,2.9,5.9,10,9c0,0,1.7,4.3,1.4,5.7c0,0,12.2-10.1,4.8-18.4
							C455.7,204.8,445.4,213.5,447.3,217.3z"/>
					</g>
				</g>
			</g>
			<g>
				<g>
					<g>
						<path class="st13" d="M457.5,226.2c0.4-1.1,2-3.4,3.4-2.1c1.4,1.3-2.2,5.8-3.1,5.1C457.7,229.2,456.4,228.8,457.5,226.2z"/>
					</g>
				</g>
			</g>
			<path class="st6" d="M450.2,235.7c0.1,0.6,0.1,1.3,0.2,2l0,0c5.4-2.7,6.2-6.5,6.3-6.6C452.8,236.1,450.2,235.7,450.2,235.7z"/>
			<path class="st13" d="M460.2,238.4c0,0-5.2,8.5-9.4,8.4c-4.2-0.1-1.3-7.9-1.3-7.9S452.7,236.4,460.2,238.4z"/>
			<g>
				<path class="st9" d="M436.5,263.2c-1.5,0.1-6.5-2.6-11.3-4.7c-4.1-1.8-8.6-3.1-10.6-3.8c-0.2-0.1-0.3-0.3-0.3-0.6
					c-0.1-1.2,1.2-5.2,2.2-4.9c1.1,0.3,2.2,0.6,3.3,0.9c2.3,0.7,4.7,1.3,6.8,1.9c0.3,0.1,0.5,0.1,0.8,0.2c2.2,0.6,4.2,1.2,5.8,1.6
					c1.7,0.4,3,0.6,3.5,0.6c1.2-0.2,8.9-3.7,14.2-6.1c0.1-0.1,0.3-0.1,0.4-0.2c2.5-1.1,4.3-2,4.5-2.2c0.7-0.5,10-6.2,13-5.3
					c5.2,1.4,1.7,11.3,1.7,11.3l0,0c0.3,3.3-0.8,0.6-1.7,1.3c-0.9,0.7-2.8,1-6.5,2.5c-2.2,1-4.2,1.6-5.6,2.1
					C453.2,259.1,439.4,262.9,436.5,263.2z"/>
			</g>
		</g>
	</g>
</g>
</svg>
