<?xml version="1.0" encoding="utf-8"?>
<!-- Generator: Adobe Illustrator 24.1.3, SVG Export Plug-In . SVG Version: 6.00 Build 0)  -->
<svg version="1.1" xmlns="http://www.w3.org/2000/svg" xmlns:xlink="http://www.w3.org/1999/xlink" x="0px" y="0px"
	 viewBox="0 0 1123 972" style="enable-background:new 0 0 1123 972;" xml:space="preserve">
<style type="text/css">
	.st0{opacity:0.37;fill:#CCE9FF;enable-background:new    ;}
	.st1{fill:#AE2E2E;}
	.st2{fill:#2A94F4;}
	.st3{fill:#FFFFFF;}
	.st4{fill:#0E538C;}
	.st5{fill:#F7F7F7;}
	.st6{fill:#0B4870;stroke:#FFFFFF;stroke-width:0.5;stroke-miterlimit:10;}
	.st7{fill:#F2F2F2;}
	.st8{fill:#D3D3D3;}
	.st9{fill:#FFB750;}
	.st10{fill:#FFE3CA;}
	.st11{fill:#EB4747;}
	.st12{fill:#FCD2B1;}
	.st13{fill:#F2F0F0;}
	.st14{fill:#FCBAA2;}
	.st15{fill:#CCE9FF;}
	.st16{fill:#FF957E;}
	.st17{fill:#0B4870;}
	.st18{fill:#E9D6B8;}
</style>
<g id="Layer_2">
</g>
<g id="Layer_1">
	<g>
		<path class="st0" d="M197.1,782.1c2,4.9,4.2,9.9,6.6,14.6c35.9,70.4,108.7,114.8,186.4,122.8c62.1,6.3,122.6-14,174.5-47
			c51.8-32.9,93.4-79.3,151-103.5c81.2-33.9,171.8-60.6,235.5-132.4c72.4-81.5,100.3-205.1,66.2-309.4
			C984,225.4,874,192.4,788.5,147.6C634.7,67,421.8,13.3,261.8,108.1C70.1,221.5,105,479,165.7,657.7
			C179.6,698.4,181.2,742.3,197.1,782.1z"/>
		<path class="st1" d="M294.9,299.7l-0.3-2h-2c-38.8,0-51.4-12.5-51.5-12.6l-1.7-1.9l-1.7,1.9c-0.1,0.1-12.6,12.6-51.5,12.6h-2
			l-0.3,2c-0.1,0.6-8.3,63.2,54.5,95.3l1,0.5l1-0.5C303.4,362.8,294.9,300.3,294.9,299.7z M285.4,338.4
			c-7.8,22.5-23.3,39.9-46.2,51.8c-22.9-12-38.4-29.4-46.2-51.8c-5.7-16.5-5.4-30.8-4.9-36c32.3-0.4,46.7-9,51.1-12.6
			c4.4,3.5,18.8,12.2,51.1,12.6C290.8,307.7,291.1,321.9,285.4,338.4z"/>
		<g>
			<path class="st1" d="M356.5,219.3l-2.2-5.8c-2-0.2-3.9-0.7-5.8-1.4l-4.5,4.2l-13-9.3l2.5-5.7c-1.3-1.6-2.3-3.3-3.1-5l-6.2-0.2
				l-2.6-15.8l5.8-2.2c0.2-2,0.7-3.9,1.4-5.8l-4.2-4.5l9.3-13.1l5.7,2.5c1.6-1.3,3.3-2.3,5-3.1l0.2-6.2l15.8-2.6l2.2,5.8
				c2,0.2,3.9,0.7,5.8,1.4l4.5-4.2l13,9.3l-2.5,5.7c1.3,1.6,2.3,3.3,3.1,5l6.2,0.2l2.6,15.8l-5.8,2.2c-0.3,2-0.7,3.9-1.4,5.8
				l4.2,4.5l-9.3,13.1l-5.7-2.5c-1.6,1.3-3.3,2.3-5,3.1l-0.2,6.2L356.5,219.3z M347.4,207.1l1.3,0.5c2.3,0.9,4.8,1.5,7.3,1.7
				l1.4,0.1l1.9,4.9l8.7-1.5l0.2-5.2l1.3-0.5c2.3-1,4.4-2.4,6.4-4l1-0.8l4.8,2.2l5.1-7.1l-3.7-3.9l0.5-1.3c0.9-2.3,1.5-4.8,1.7-7.3
				l0.1-1.4l4.9-1.9l-1.5-8.7l-5.2-0.2l-0.5-1.3c-1-2.3-2.4-4.4-4-6.4l-0.8-1l2.2-4.8l-7.1-5.1l-3.9,3.6l-1.3-0.5
				c-2.3-0.9-4.8-1.5-7.3-1.7l-1.4-0.1l-1.9-4.9l-8.7,1.5l-0.2,5.2l-1.3,0.5c-2.3,1-4.4,2.4-6.4,4l-1,0.8l-4.8-2.2l-5.1,7.1l3.7,3.9
				l-0.5,1.3c-0.9,2.3-1.5,4.8-1.7,7.3l-0.1,1.4l-4.9,1.9l1.5,8.7l5.2,0.2l0.5,1.3c1,2.3,2.4,4.4,4,6.4l0.8,1l-2.2,4.8l7.1,5.1
				L347.4,207.1z M358.4,199.8c-3.6,0-7.1-1.2-10.1-3.3c-7.9-5.6-9.7-16.5-4.1-24.3s16.5-9.7,24.3-4.1c3.8,2.7,6.3,6.7,7.1,11.3
				c0.7,4.6-0.3,9.2-2.9,13c-2.7,3.8-6.7,6.3-11.3,7.1C360.2,199.7,359.3,199.8,358.4,199.8z M358.4,169.3c-4.1,0-8.1,1.9-10.6,5.5
				c-2,2.8-2.8,6.3-2.2,9.8c0.6,3.5,2.4,6.4,5.2,8.4l0,0c2.8,2,6.3,2.8,9.8,2.2s6.4-2.4,8.4-5.2c2-2.8,2.8-6.3,2.2-9.8
				c-0.6-3.5-2.4-6.4-5.2-8.4C363.6,170.1,361,169.3,358.4,169.3z"/>
		</g>
		<g>
			<path class="st1" d="M859.5,390.3l-4.9-12.9c-5.2-0.6-10.5-1.8-15.4-3.6l-10.1,9.4l-27.3-19.4l5.7-12.6
				c-3.3-4.1-6.1-8.6-8.4-13.4l-13.7-0.4l-5.6-33.1l12.9-4.9c0.6-5.2,1.8-10.5,3.6-15.4l-9.4-10.1l19.4-27.3l12.6,5.7
				c4.1-3.3,8.6-6.1,13.4-8.4l0.4-13.7l33.1-5.6l4.9,12.9c5.2,0.6,10.5,1.8,15.4,3.6l10.1-9.4l27.3,19.4l-5.7,12.6
				c3.3,4.1,6.1,8.6,8.4,13.4l13.7,0.4l5.6,33.1l-12.9,4.9c-0.6,5.2-1.8,10.5-3.6,15.4l9.4,10.1L919,368.3l-12.6-5.7
				c-4.1,3.3-8.6,6.1-13.4,8.4l-0.4,13.7L859.5,390.3z M837.7,367.2l1.7,0.6c5.6,2.1,11.4,3.5,17.4,4l1.9,0.2l4.5,11.8l23.5-4
				l0.4-12.6l1.7-0.7c5.5-2.4,10.6-5.7,15.2-9.5l1.4-1.2l11.5,5.1l13.9-19.4l-8.6-9.2l0.6-1.7c2.1-5.6,3.5-11.4,4-17.4l0.1-1.9
				l11.8-4.5l-4-23.5l-12.6-0.4l-0.7-1.7c-2.4-5.5-5.7-10.6-9.5-15.2l-1.2-1.4l5.1-11.5l-19.4-13.9l-9.2,8.6l-1.7-0.6
				c-5.6-2.1-11.4-3.5-17.4-4l-1.9-0.1l-4.5-11.8l-23.5,4l-0.4,12.6l-1.7,0.7c-5.5,2.4-10.6,5.7-15.2,9.5l-1.4,1.2l-11.5-5.1
				l-13.6,19.4l8.6,9.2l-0.6,1.7c-2.1,5.6-3.5,11.4-4,17.4l-0.1,1.9l-11.8,4.5l4,23.5l12.6,0.4l0.7,1.7c2.4,5.5,5.7,10.6,9.5,15.2
				l1.2,1.4l-5.1,11.5l19.4,13.9L837.7,367.2z M862.4,345.5c-7.7,0-15.3-2.3-22-7c-17.1-12.2-21.1-36-8.9-53.1
				c12.2-17.1,36-21.1,53.1-8.9c17.1,12.2,21.1,36,8.9,53.1C886,340,874.3,345.5,862.4,345.5z M862.5,275.3
				c-10.1,0-20,4.7-26.2,13.5c-5,7-6.9,15.5-5.6,24c1.5,8.5,6.1,15.8,13.1,20.9c14.5,10.3,34.6,6.9,44.9-7.6c4.9-7,6.9-15.5,5.6-24
				c-1.5-8.5-6.1-15.8-13.1-20.9C875.4,277.2,868.9,275.3,862.5,275.3z"/>
		</g>
		<path class="st1" d="M348.6,626.4c-5-14.2-10.8-30.1-4.4-46.5c8.6-22-9.7-33.4-25.7-43.5c-13.9-8.6-26.9-16.8-22.5-30.3
			c4.8-14.7,4.5-26-0.9-33.5c-4.6-6.3-12.8-9.7-23.7-9.5c-8.7,0.1-16.5-10.6-24.8-21.8c-9.8-13.2-19.7-26.9-32.3-23.8
			c-2.2,0.5-4,1.8-5,3.8c-4.4,8.3,2.5,28,10,49c8,22.7,17.1,48.3,11.1,59.2c-6.5,12,5.2,22.9,17.7,34.5
			c13.2,12.3,28.2,26.2,24.2,43.8c-3.8,16.4-4.6,22.5-2.3,26c1.8,2.8,5.5,3.5,11,4.5c3.8,0.7,8.6,1.6,14.5,3.5
			c25.3,7.9,32.6,24.2,32.7,24.4l0.3,0.7l0.7-0.1c12.2-1.9,19.3-5.4,22.7-10.9c0.2-0.3,0.3-0.6,0.5-0.9
			C356,647.4,352.6,637.7,348.6,626.4z"/>
		<path class="st2" d="M284,595.2c4.2,6.5,7.2,12.2,6.9,20.1c-0.2,7.4-1.4,14.8-2,22.1c-0.1,1.6-0.2,3-0.3,4.5
			c-2.1-1.8-4.1-3.6-6.2-5.4c-0.9-0.1-1.9-0.1-2.9-0.1c2.9,2.4,6,5,8.9,7.7c-0.3,5.1-0.4,10.3-0.4,15.4c0,3-0.1,6.3,0.1,9.3
			c-2.7-1.7-5.6-3.4-8.2-5c-8.2-5-15.8-9.8-21.7-12.3c-4.5-1.9-9.5-3.6-14.4-5.1c-12.6-4.1-25.5-8.3-29.8-17.2
			c-2.2-4.6-2-10.2,0.6-16.9c6.6-17.3,0.4-20.3-10-25.3c-7.6-3.7-17.8-8.6-28.1-21.1c-4.5-5.5-8.5-10.2-12.1-14.3
			c-10.6-12.5-16.5-19.3-15.7-23.3c0.2-0.9,0.7-1.8,1.8-2.6c0.5-0.4,1.2-0.8,2-1.3c4-2.2,8-0.5,12.5,1.4c6.1,2.5,13.5,5.8,23.9,0.4
			c8.2-4.2,17.3-8.1,22.8-4.9c3.8,2.1,6,7.6,6.7,16.5c0.2,2.8,1.2,4.8,2.7,6c2.3,1.7,5.9,1.5,10,0.6l0,0c2.8,3.9,6.5,5.8,10.9,7.3
			c6.2,2.2,10.8,4.2,15.3,9.2C267,572,276.3,583.1,284,595.2z"/>
		<path class="st3" d="M250.5,612.5c-6.3-4.2-11.8-14.4-17-24.2c-7.1-13.4-14.6-27.3-24.8-27c-16.4,0.4-31-18.9-31.2-19l-1.4,1
			c0.6,0.8,15.3,20.1,32.5,19.7c9.1-0.2,16.4,13.1,23.2,26.1c5.4,10,10.9,20.4,17.5,24.9c4,2.6,11.3,8,20,14.8c0-0.7,0-1.5,0-2.2
			C261.8,620.2,255,615.4,250.5,612.5z"/>
		<path class="st1" d="M803.5,742.5c0,0,9.4-23.5-7.8-56.9c-17.3-33.4-31.3-28.2,10.4-53.9c41.7-25.7,0.2-106.5,35.7-116.8
			c35.5-10.3,66.2-141.1,93.2-124.4c27,16.7-9,80.8,10.3,100.1c19.2,19.3,21.8,43.8-17.9,63.6c-39.8,19.8,28.2,95.6-25.7,118.7
			S863.2,786.4,803.5,742.5z"/>
		<g>
			<path class="st3" d="M819.9,767.3c-0.1-0.3-5.9-30.3,12.5-69.1c18.7-39.6,27.6-82.8,23.9-115.7c-2-17.8,9.4-24.8,20.5-31.5
				c10.9-6.6,22.1-13.5,21.5-31.1c-0.5-15.8,6.2-53,6.4-54.6l2.4,0.4c-0.1,0.4-6.9,38.5-6.4,54c0.6,19-11.2,26.2-22.7,33.2
				c-10.9,6.6-21.1,12.9-19.3,29.2c3.8,33.3-5.2,77-24.1,117c-17.9,38.1-12.4,67.4-12.3,67.7L819.9,767.3z"/>
		</g>
		<path class="st4" d="M963.2,572.4c15-7.1,31-3.9,22.7,11.1c-8.3,15-20.7,16.2-18.4,28c2.3,11.9,8.4,24.8-11.1,32.3
			c-19.5,7.4-28.6,6.2-40.5,28.1c-12,21.9-16.1,38.2-36.5,32.9c-20.5-5.4-3.5-32.3,7.1-43.6c0,0,14.4-12.2,14.2-34.1
			c-0.2-21.9-9.2-36.6,19.1-35.2C948,593.3,953,577.2,963.2,572.4z"/>
		<g>
			<path class="st3" d="M876.1,720.2c0.8-2.8,20.6-70.7,36.7-78.1c16.5-7.6,25.4-27.3,29.3-38.3c5-14.4,26.5-17.2,27.4-17.3l0.3,2.4
				c-0.2,0-20.9,2.7-25.4,15.6c-4.8,14-14.1,32.2-30.5,39.8c-15.1,6.9-35.2,75.9-35.4,76.6L876.1,720.2z"/>
		</g>
		<path class="st3" d="M356.4,665.6c-32.3-8.1-32.7-25.5-33.2-42.3c-0.3-13.7-0.6-26.8-18.2-34.7c-23.2-10.6-23.7-30.2-24.2-47.5
			c-0.4-12.9-0.7-25.1-10.4-31.7c-23.2-15.8-42.8-54.2-43-54.7l1.8-0.9c0.2,0.4,19.5,38.3,42.4,53.9c10.5,7.1,10.9,19.8,11.2,33.3
			c0.5,17.5,1,35.8,23.1,45.7c18.6,8.5,19,22.8,19.3,36.5c0.4,16.8,0.8,32.7,31.7,40.4L356.4,665.6z"/>
		<g>
			<g>
				<path class="st5" d="M312.8,650h530.8V266.8c0-5.5-4.4-10-10-10H322.8c-5.5,0-10,4.4-10,10V650z"/>
			</g>
			<g>
				<rect x="331.6" y="276.1" class="st6" width="492.3" height="302.5"/>
			</g>
			<polygon class="st7" points="843.6,593.3 578.3,593.3 313,593.3 254.9,810.4 580.1,810.4 901.7,810.4 			"/>
			<path class="st6" d="M333.1,631.4h32.6c1.4,0,2.4,1,2.1,2.2l-3.1,14.2c-0.2,0.8-1,1.5-2.1,1.5h-33.2c-1.4,0-2.4-1-2.1-2.3
				l3.7-14.2C331.2,632,332,631.4,333.1,631.4z"/>
			<polygon class="st6" points="380.6,631.4 405.3,631.4 402,649.3 376.8,649.3 			"/>
			<polygon class="st6" points="417.5,631.4 442.2,631.4 439.7,649.3 414.5,649.3 			"/>
			<polygon class="st6" points="454.6,631.4 479.2,631.4 477.3,649.3 452.2,649.3 			"/>
			<polygon class="st6" points="491.5,631.4 516.2,631.4 515,649.3 489.8,649.3 			"/>
			<polygon class="st6" points="528.4,631.4 553.1,631.4 552.7,649.3 527.5,649.3 			"/>
			<polygon class="st6" points="824.3,631.4 787.3,631.4 791.3,649.3 829,649.3 			"/>
			<polygon class="st6" points="775,631.4 750.4,631.4 753.6,649.3 778.8,649.3 			"/>
			<polygon class="st6" points="738.1,631.4 713.4,631.4 715.9,649.3 741.1,649.3 			"/>
			<polygon class="st6" points="701,631.4 676.4,631.4 678.3,649.3 703.5,649.3 			"/>
			<polygon class="st6" points="664.1,631.4 639.5,631.4 640.6,649.3 665.8,649.3 			"/>
			<polygon class="st6" points="627.2,631.4 602.5,631.4 602.9,649.3 628.1,649.3 			"/>
			<polygon class="st6" points="565.5,631.4 590.1,631.4 590.5,649.3 565.5,649.3 			"/>
			<polygon class="st6" points="322.3,662.6 373.7,662.6 370.7,681.1 318.3,681.1 			"/>
			<polygon class="st6" points="832.3,662.6 768.7,662.6 772.3,681.1 837.2,681.1 			"/>
			<polygon class="st6" points="755.9,662.6 730.5,662.6 733.4,681.1 759.4,681.1 			"/>
			<polygon class="st6" points="717.7,662.6 692.3,662.6 694.4,681.1 720.5,681.1 			"/>
			<polygon class="st6" points="679.5,662.6 654.1,662.6 655.6,681.1 681.5,681.1 			"/>
			<polygon class="st6" points="641.3,662.6 616,662.6 616.7,681.1 642.6,681.1 			"/>
			<polygon class="st6" points="314.5,695.5 367.2,695.5 363.3,713.8 309.7,713.8 			"/>
			<polygon class="st6" points="380.3,695.5 406.6,695.5 403.6,713.8 376.7,713.8 			"/>
			<polygon class="st6" points="419.8,695.5 446.2,695.5 617.2,695.5 617.9,713.8 416.9,713.8 			"/>
			<polygon class="st6" points="630.4,695.5 656.8,695.5 658.2,713.8 631.4,713.8 			"/>
			<polygon class="st6" points="669.9,695.5 696.2,695.5 698.4,713.8 671.6,713.8 			"/>
			<polygon class="st6" points="709.4,695.5 735.8,695.5 738.6,713.8 711.9,713.8 			"/>
			<polygon class="st6" points="748.9,695.5 775.2,695.5 778.8,713.8 752,713.8 			"/>
			<polygon class="st6" points="788.3,695.5 841,695.5 845.8,713.8 792.2,713.8 			"/>
			<polygon class="st6" points="603.3,662.6 578,662.6 578,681.1 603.7,681.1 			"/>
			<polygon class="st6" points="565.1,662.6 539.6,662.6 538.8,681.1 564.9,681.1 			"/>
			<polygon class="st6" points="526.9,662.6 501.4,662.6 499.9,681.1 525.9,681.1 			"/>
			<polygon class="st6" points="488.7,662.6 463.2,662.6 461,681.1 487,681.1 			"/>
			<polygon class="st6" points="450.5,662.6 425,662.6 422,681.1 448.1,681.1 			"/>
			<polygon class="st6" points="412.3,662.6 386.8,662.6 383.2,681.1 409.1,681.1 			"/>
			<polygon class="st6" points="334.2,620.1 338.4,604.2 350.4,604.2 346.5,620.1 			"/>
			<polygon class="st6" points="362.3,604.2 386.3,604.2 383,620.1 358.6,620.1 			"/>
			<polygon class="st6" points="398.3,604.2 422.3,604.2 419.5,620.1 395.2,620.1 			"/>
			<polygon class="st6" points="434.2,604.2 458.1,604.2 456,620.1 431.7,620.1 			"/>
			<polygon class="st6" points="470.1,604.2 494,604.2 492.6,620.1 468.2,620.1 			"/>
			<polygon class="st6" points="506,604.2 529.9,604.2 529.1,620.1 504.7,620.1 			"/>
			<polygon class="st6" points="541.9,604.2 565.8,604.2 565.6,620.1 541.2,620.1 			"/>
			<polygon class="st6" points="577.8,604.2 601.7,604.2 602.1,620.1 577.8,620.1 			"/>
			<polygon class="st6" points="613.6,604.2 637.6,604.2 638.6,620.1 614.3,620.1 			"/>
			<polygon class="st6" points="649.5,604.2 673.6,604.2 675.1,620.1 650.8,620.1 			"/>
			<polygon class="st6" points="685.5,604.2 709.4,604.2 711.8,620.1 687.4,620.1 			"/>
			<polygon class="st6" points="721.4,604.2 745.3,604.2 748.3,620.1 723.9,620.1 			"/>
			<polygon class="st6" points="757.3,604.2 781.2,604.2 784.8,620.1 760.4,620.1 			"/>
			<polygon class="st6" points="793.2,604.2 817.1,604.2 821.3,620.1 797,620.1 			"/>
			<path class="st8" d="M884.8,827.3h-613c-9.3,0-16.9-7.6-16.9-16.9l0,0h646.8l0,0C901.7,819.7,894.1,827.3,884.8,827.3z"/>
			<path class="st8" d="M653.5,740.2c-0.6-3.8-4-6.6-7.8-6.6h-67.4h-67.5c-3.9,0-7.1,2.8-7.8,6.6l-8.4,50.9
				c-0.8,4.8,2.9,9.2,7.8,9.2h75.8H654c4.9,0,8.6-4.4,7.8-9.2L653.5,740.2z"/>
			<g>
				<g>
					<rect x="364.8" y="301.8" class="st5" width="54.9" height="5.7"/>
				</g>
				<g>
					<rect x="435.1" y="344.1" class="st5" width="39.6" height="5.7"/>
				</g>
				<g>
					<rect x="480.8" y="344.1" class="st5" width="26.2" height="5.7"/>
				</g>
				<g>
					<rect x="365.4" y="450.5" class="st5" width="26.2" height="5.7"/>
				</g>
				<g>
					<rect x="512.3" y="344.1" class="st5" width="63.5" height="5.7"/>
				</g>
				<g>
					<rect x="365.4" y="429.2" class="st5" width="40.8" height="5.7"/>
				</g>
				<g>
					<rect x="422.3" y="471.6" class="st5" width="24.9" height="5.7"/>
				</g>
				<g>
					<rect x="365.4" y="471.6" class="st5" width="49.3" height="5.7"/>
				</g>
				<g>
					<rect x="365.4" y="492.7" class="st5" width="27.2" height="5.7"/>
				</g>
				<g>
					<rect x="430.3" y="301.8" class="st5" width="38.9" height="5.7"/>
				</g>
				<g>
					<rect x="430.3" y="365.3" class="st5" width="38.9" height="5.7"/>
				</g>
				<g>
					<rect x="410.8" y="386.4" class="st5" width="16.7" height="5.7"/>
				</g>
				<g>
					<rect x="394.2" y="407.9" class="st5" width="37.4" height="5.7"/>
				</g>
				<g>
					<rect x="437.3" y="407.9" class="st5" width="51.6" height="5.7"/>
				</g>
				<g>
					<rect x="365.4" y="386.6" class="st5" width="38.9" height="5.7"/>
				</g>
				<g>
					<rect x="365.4" y="407.9" class="st5" width="23.1" height="5.7"/>
				</g>
				<g>
					<rect x="435.4" y="386.6" class="st5" width="21.8" height="5.7"/>
				</g>
				<g>
					<rect x="366.1" y="513.8" class="st5" width="21.8" height="5.7"/>
				</g>
				<g>
					<rect x="365.3" y="344.1" class="st5" width="38.9" height="5.7"/>
				</g>
				<g>
					<rect x="399.7" y="450.5" class="st5" width="38.9" height="5.7"/>
				</g>
				<g>
					<rect x="400.2" y="492.7" class="st5" width="38.9" height="5.7"/>
				</g>
				<g>
					<rect x="469.4" y="492.7" class="st5" width="38.9" height="5.7"/>
				</g>
				<g>
					<rect x="365.3" y="365.3" class="st5" width="55.5" height="5.7"/>
				</g>
				<g>
					<rect x="625.4" y="301.8" class="st5" width="38.9" height="5.7"/>
				</g>
				<g>
					<rect x="486.7" y="513.8" class="st5" width="38.9" height="5.7"/>
				</g>
				<g>
					<rect x="676.4" y="301.8" class="st5" width="26" height="5.7"/>
				</g>
				<g>
					<rect x="764.6" y="323" class="st5" width="26" height="5.7"/>
				</g>
				<g>
					<rect x="479.8" y="301.8" class="st5" width="49.6" height="5.7"/>
				</g>
				<g>
					<rect x="673" y="323" class="st5" width="49.6" height="5.7"/>
				</g>
				<g>
					<rect x="612.2" y="344.1" class="st5" width="49.6" height="5.7"/>
				</g>
				<g>
					<rect x="547.6" y="365.3" class="st5" width="49.6" height="5.7"/>
				</g>
				<g>
					<rect x="668" y="344.1" class="st5" width="35.3" height="5.7"/>
				</g>
				<g>
					<rect x="566" y="301.8" class="st5" width="49.6" height="5.7"/>
				</g>
				<g>
					<rect x="509.5" y="365.3" class="st5" width="29.1" height="5.7"/>
				</g>
				<g>
					<rect x="486.7" y="450.8" class="st5" width="29.1" height="5.7"/>
				</g>
				<g>
					<rect x="538.5" y="301.8" class="st5" width="18.2" height="5.7"/>
				</g>
				<g>
					<rect x="479.8" y="365.3" class="st5" width="18.2" height="5.7"/>
				</g>
				<g>
					<rect x="734.6" y="323" class="st5" width="18.2" height="5.7"/>
				</g>
				<g>
					<rect x="364.8" y="323" class="st5" width="28.4" height="5.7"/>
				</g>
				<g>
					<rect x="440.6" y="429.3" class="st5" width="22.5" height="5.7"/>
				</g>
				<g>
					<rect x="400.2" y="323" class="st5" width="9.1" height="5.7"/>
				</g>
				<g>
					<rect x="588.5" y="323" class="st5" width="75.9" height="5.7"/>
				</g>
				<g>
					<rect x="515.7" y="492.7" class="st5" width="75.9" height="5.7"/>
				</g>
				<g>
					<rect x="416.1" y="323" class="st5" width="9.3" height="5.7"/>
				</g>
				<g>
					<rect x="556.7" y="323" class="st5" width="24.8" height="5.7"/>
				</g>
				<g>
					<rect x="581.5" y="344.1" class="st5" width="24.8" height="5.7"/>
				</g>
				<g>
					<rect x="453.9" y="513.8" class="st5" width="24.8" height="5.7"/>
				</g>
				<g>
					<rect x="497.4" y="323" class="st5" width="52.8" height="5.7"/>
				</g>
				<g>
					<rect x="448.2" y="450.8" class="st5" width="30.8" height="5.7"/>
				</g>
				<g>
					<rect x="446.3" y="492.7" class="st5" width="15.4" height="5.7"/>
				</g>
				<g>
					<rect x="471.7" y="323" class="st5" width="18.2" height="5.7"/>
				</g>
				<g>
					<rect x="410.6" y="344.1" class="st5" width="18.2" height="5.7"/>
				</g>
				<g>
					<rect x="414.2" y="429.3" class="st5" width="18.2" height="5.7"/>
				</g>
				<g>
					<rect x="433.2" y="323" class="st5" width="31.7" height="5.7"/>
				</g>
			</g>
		</g>
		<g>
			<g>
				<g>
					<path class="st9" d="M698.8,365.5c0,0,9.2,15.6,13.1,18.2c5.2,3.5,2,6.9-0.5,7c-2.5,0-15.3,0.9-18.2-2.3
						c-2.8-3.3-4.2-12.8-6.8-15.3s-5.4-12.5,1.3-14.9C693.5,355.9,698.8,365.5,698.8,365.5z"/>
				</g>
			</g>
		</g>
		<g>
			<g>
				<g>
					<path class="st10" d="M694.8,358.7c0,0,10.6,18.4,12.4,21c1.8,2.7-3.5,2.7-6.7,1.5c-3.3-1.3-11.4-14.4-12.6-16.8
						c-1.4-2.8-0.2-6.1-0.2-6.1L694.8,358.7z"/>
				</g>
			</g>
		</g>
		<g>
			<g>
				<g>
					<polygon class="st9" points="684.1,368.4 686.6,387.2 687.8,387.3 687.4,373.8 					"/>
				</g>
			</g>
		</g>
		<g>
			<g>
				<g>
					<path class="st9" d="M607.2,365.5c0,0,9.2,15.6,13.1,18.2c5.2,3.5,2,6.9-0.5,7c-2.5,0-15.3,0.9-18.2-2.3s-4.2-12.8-6.8-15.3
						c-2.6-2.5-5.5-12.8,1.3-14.9C602,356.2,607.2,365.5,607.2,365.5z"/>
				</g>
			</g>
		</g>
		<g>
			<g>
				<g>
					<path class="st10" d="M603.8,358.7c0,0,10,18.3,11.9,21c1.8,2.7-3.5,2.7-6.7,1.5c-3.3-1.3-11.4-14.4-12.6-16.8
						c-1.4-2.8-0.2-6.1-0.2-6.1L603.8,358.7z"/>
				</g>
			</g>
		</g>
		<g>
			<g>
				<g>
					<polygon class="st9" points="592.6,368.4 595,387.2 596.3,387.3 595.9,373.8 					"/>
				</g>
			</g>
		</g>
		<g>
			<g>
				<g>
					<path class="st10" d="M566.3,223.1l83.5,38.1c0,0,9.3,3,10.4,13.4c3.3,32.3,27.4,83.5,27.4,83.5c7.8,3.8,7.1,0.5,7.1,0.5
						c-4.9-15.7-10.8-80.4-13-106.3c-0.4-5.5-0.7-9.2-0.8-10.5c0-0.8-0.9-1.9-2.5-3.1c-11.4-9.3-58.7-28.5-58.7-28.5
						C584.6,209.2,566.3,223.1,566.3,223.1z"/>
				</g>
			</g>
		</g>
		<g>
			<g>
				<g>
					<path class="st10" d="M550.6,239.5c2.6,22.6,34.8,20,34.8,20h39c0,0-10.3,22.9-14.3,42.1C606,322,596,358.1,596,358.1
						s0.6,1.3,7.8,0.5c0,0,30.6-61.1,42.4-76.5c2.5-3.3,9.8-21.3,11-32c0.4-3.6,0.2-6.4-1.2-7.6c-1.4-1.2-4.5-3.3-8.6-5.9
						c-12.3-7.8-33.5-19.6-45.3-22.2c-15.8-3.6-40.9-10.3-40.9-10.3S548,216.9,550.6,239.5z"/>
				</g>
			</g>
		</g>
		<g>
			<path class="st4" d="M577.1,65.5c0,0-5.9-11.1-3-22.9c2.8-11.9,13.9-23.6,29.9-18.2c16.1,5.5,29.1,17.8,19.4,32.3
				c-9.7,14.4,8.7,21,4,27.8s-2.9,14.1-0.9,15.6c2,1.6,8.4,7.2,7.7,14.1c-0.7,6.7-31.2-19.6-31.2-19.6S586.5,61.2,577.1,65.5z"/>
		</g>
		<g>
			<path class="st11" d="M626.1,207.3c0,0-2.4,11.8-64.8-3C561.3,204.3,582.2,197.4,626.1,207.3z"/>
		</g>
		<g>
			<g>
				<path class="st3" d="M560.6,207.6c-0.9,1.9-1.9,3.7-2.9,5.6c22.8,0.6,45.6,1.4,68.4,2c-3.6-12.1-2.4-28.4-1.8-40.8
					c0.7-15.2,9.1-25.7,8.3-41c4.5,0.7,5.2,0.8,9.8,1.6c-6.9-19.7-9.2-29.5-30.7-37c-7-2.5-11.5-2.9-19.1-2.3
					c-24.9,2.1-32.3,2.3-44.6,24.9c19.1,3,15.9,9.9,21.7,29c2.8,9.2,5.8,19.6,4.3,29.4C572.4,188.2,560.6,198.8,560.6,207.6z"/>
			</g>
		</g>
		<g>
			<g>
				<path class="st10" d="M600.2,102.5c-10.2-1.9-8-7.6-8-7.6s0.4-3.1,0.6-7.2c0-1,0.1-2.1,0.1-3.3c0-1.7-0.1-3.4-0.3-5
					c-0.8-6.8,18.5-2.7,18.5-2.7s-1.2,13.9,1.6,17.9C615.3,98.9,610.4,104.5,600.2,102.5z"/>
			</g>
		</g>
		<g>
			<g>
				<path class="st10" d="M580.8,95c0,0,20.6,23.7,28.1,29.2c0,0,8.7-7.9,3.4-28.6C612.3,95.5,602.4,90.5,580.8,95z"/>
			</g>
		</g>
		<g>
			<path class="st10" d="M581.4,37.9c0,0-10.7,20.6-0.1,40c10.6,19.4,31.4-8.5,32.6-11.8c1.4-3.3,8.5-21.8-5.7-27.4
				C594.1,33.1,584.5,32.3,581.4,37.9z"/>
		</g>
		<g>
			<path class="st12" d="M602,80c0,0-1.9,4.1-9.1,7.8c0-1,0.1-2.1,0.1-3.3C593,84.5,597.9,84,602,80z"/>
		</g>
		<g>
			<path class="st10" d="M494.2,189.1c0,0-5,2.2-7.4,1.3c-2.4-1-6.1-1.3-7.2-1.3c-1.6,0-6.5-1.8-6.4,0.2c0.1,1.9,8,3.3,9.5,3.9
				s-4.8,4.1-5.5,5.7c-0.6,1.6,6.7,11.9,10.8,8.9s6.3-8.8,7.1-9.2c0.8-0.4,3-2,3-2L494.2,189.1z"/>
		</g>
		<g>
			<path class="st10" d="M478.1,197.9c0,0-11.9,9.9-12.1,11.2c-0.2,1.4,0.4,2,1.6,1c1.2-0.8,11.8-9.2,11.8-9.2s-11.9,14.1-12.3,15.1
				c-0.2,0.6,0.9,1.9,1.6,1.5c0.6-0.4,13.3-13.6,13.3-13.6S470.8,217,470.8,218c-0.1,0.8,1.3,1.8,2.2,0.8c0.9-0.9,12-12.5,12-12.5
				s-7.4,10.1-6.9,11c0.3,0.5,1.3,1.7,3-0.9c1.8-2.6,6.8-8.5,6.8-8.5L478.1,197.9z"/>
		</g>
		<g>
			<g>
				<path class="st4" d="M620.4,259.4h-34.9c0,0-32.2,2.6-34.8-20c-2.6-22.6,10.6-35.2,10.6-35.2s17,4.5,31.9,8.1
					c7.4-1.6,16.4-2.6,26.9-2.3c0,0,63,20.8,61.1,31.8C681,241.9,654.7,227.8,620.4,259.4z"/>
			</g>
		</g>
		<g>
			<polygon class="st7" points="597.6,220.4 664.3,219.3 630.6,236.4 			"/>
		</g>
		<g>
			<path class="st3" d="M618.4,211.8c0,0-15,5.8-33.4,0.5l-0.8-6.8l37.9,2.1L618.4,211.8z"/>
		</g>
		<g>
			<polygon class="st8" points="630.6,236.4 597.6,223.6 597.6,220.4 633.3,233.2 			"/>
		</g>
		<g>
			<g>
				<path class="st1" d="M618.1,215c-0.2,2.4,2.3,4.2,4.6,3.3l3.9-1.7c1.2-0.5,1.9-1.7,1.7-2.9c-1.6-10.1-5-49.3,0-56.1
					c1.9-2.5,3-4.7,3.7-6.6c3.4,8.6,7.4,19.7,9.1,25.7l31.5,42l10.6,2.7c-13.2-31.8-23.8-48.6-23.8-48.6c-2.1-5.6-8-22.3-13.2-37.2
					c-3.4-9.4-6.3-18.2-8-22.8c-0.8-2.4-2.4-4.4-4.6-5.7c-4.9-2.9-13-7.6-20.4-11.1H613c-0.2-0.1-0.4-0.2-0.7-0.3l0,0l0,0
					C626.3,116.7,620.9,176.6,618.1,215C618.1,214.9,618.1,214.9,618.1,215z"/>
			</g>
			<g>
				<path class="st1" d="M566,97.3c-4.5,0.7-15.6,11.5-21.5,22.5c-6.7,12.5-13.6,26.7-18.8,31.3c-9.4,8.6-36,38.9-37.2,38.2
					c-0.5-0.3,7.2,9,8.3,9.4c0.5,0.2,43.5-37.1,47.7-42.8c3.9-5.4,14.4-28,17.5-27.5l0,0l0,0c0.2,0.5,4.1,8.8,7.7,20.9
					c0.1,0.2,0.1,0.4,0.2,0.6c2.5,8.4,2.3,17.6,0.9,27.9c-1,7.8-6.8,20.5-10.3,26.7c-0.4,0.7-0.3,2.2,0.1,3.3l0,0
					c0.3,0.6,0.6,1.2,1.2,1.4l12.7,4.7l2.9,1c2.1,0.8,4.4,0.4,6.1-0.8c1.4-0.9,2.4-2.5,2.6-4.4c2.8-21.6,6.4-43.8,9.2-52
					c12.5-36.5-4.8-64-4.8-64S570,95.8,566,97.3z"/>
			</g>
		</g>
		<g>
			<polygon class="st1" points="630.6,236.4 650.5,182.3 714.4,183.3 695.5,233.3 			"/>
		</g>
		<g>
			<path class="st13" d="M670.9,206.2c-2,3.9-1.4,8.2,1.4,9.4c2.7,1.4,6.4-0.7,8.4-4.6s1.4-8.2-1.4-9.4
				C676.6,200.2,672.8,202.3,670.9,206.2z"/>
		</g>
		<path class="st4" d="M632.1,103.9c-4.7-7.1-8.1-12.8-8.5-23c-0.3-6.7-1.8-15.8-6.4-20.4c4.8-12.6-0.8-16.4-3.1-20.5
			c-2.8-5.1-23.8-17.5-32.1-4.5c-8.3,12.9-5.4,26.4-5.4,26.4c0.8-7.1,8.2-16.8,8.2-16.8c1.2,7.4,16.6,19.6,23.3,24.6
			c-0.1,0.1-0.2,0.3-0.2,0.4c-3.8,5.5,0.9,10.9,1.8,16.7c0.8,5.8-15.8,21.3,2.7,29.1C631,123.8,636.8,110.9,632.1,103.9z"/>
		<g>
			<g>
				<path class="st4" d="M294.3,715.1c0,0-0.4,4.4-21,4.4s-50.5-5.4-50.5-5.4l47.7-4.6C270.6,709.5,289,708.6,294.3,715.1z"/>
				<path class="st4" d="M242,716.7c-11.6,0-16.6,6-21.2,7.9c-4.6,1.9-9.2,4.7-9.2,4.6c2.6-5.1,6.3-5.2,8.2-6.9
					c1.9-1.7,1.4-0.8-2.7-1.2c-2.3-0.2-6.5,4.1-9.4,6.5c-2.6,2-4.2,2.2-4.2,2.2s3-4.3,6.8-7.8c4.6-4.2,10.4-7.7,11.8-8.3
					c2.5-1,10.3-1.3,15.7-0.5C244,714,250.4,716.7,242,716.7z"/>
				<path class="st4" d="M222.7,713.9c0,0-8.9,2.3-10.5,3.6c-1,0.8-5.7,5.8-5.7,5.8s3.4-0.5,5.2-2.4
					C213.8,718.9,222.7,713.9,222.7,713.9z"/>
			</g>
			<path class="st4" d="M277.5,706.1c0,0,22.5,1.5,20.9,15.3c-0.8,7.9-6,10.6-12.8,10c-12.6-1-26.9-2.9-26.9-2.9l-6.4-21.5
				L277.5,706.1z"/>
			<path class="st4" d="M282.2,708l22-71c0,0,3.3-10.4,8.6-8.5c7.7,2.8,3.9,11.3,3.3,16.4c-1.4,10.3-0.4,14.8-7.6,39.6
				c-4.4,15.3-8.2,32.9-12,43c-2.6,6.9-7.1-3-14-5.8C269.8,716.5,282.2,708,282.2,708z"/>
		</g>
		<path class="st4" d="M283.9,598.3c4.3,12.4,17.6,18.8,29.9,14.3c12.2-4.5,18.7-18.3,14.4-30.6c-4.3-12.4-17.6-18.8-29.9-14.3
			C286.1,572.2,279.6,585.9,283.9,598.3z"/>
		<path class="st4" d="M259.7,599.5c6.7,10.1,20.1,12.6,29.9,5.7l-1.4-11.9c9.8-7,12.2-20.9,5.5-31l-4.6-6.8
			c-6.7-10.1-20.1-12.6-29.9-5.7l-4.4,3.1c-9.8,7-12.2,20.9-5.5,31L259.7,599.5z"/>
		<path class="st10" d="M250.9,566.4c1.2,1.7,2.4,3.3,3.9,4.8c9.7,10.5,22.6,14.5,30.7,10.2c3.8,5.1,8.1,9.2,12,12.4
			c4.5,3.7,16.1,5.1,16.1,5.1c6.7,7.3-18.5,50.3-20.3,50.1c-3.7-0.3-8.4-24-4.9-32.6c1.6-3.9,4.1-8.5,3.4-10.6c-2.6-7.2-6.3-6-6.3-6
			s-4.8,5.7-8.6,5.5c-3.9-0.3-10.6-6.4-10.9-6.5c-1.2-0.9-2.2-2.1-3.1-3.5l-10.1-15.1C250.1,576,249.4,570.9,250.9,566.4z"/>
		<path class="st13" d="M327.9,747.2c0,0-8.2,9.9-10.7,10.9c-3.4,1.5-13.6-1.7-13.6-1.7s-2.7-45.2-5.9-62.9
			c-3.1-17.6-7.8-22.2-8-27.8c-0.3-8.9-7.8-12.5-6.5-19.4c1.3-6.9,3.5-31.7,4.2-28.4c6.4,28.1,14.3,4.7,16.1,1
			C304.4,617,327.9,747.2,327.9,747.2z"/>
		<path class="st4" d="M290.7,609.5c0,0-10,10.9-9.2,15.2c0.6,4.3-4.3,17.7,0.6,36.4c5.6,21.3,8.5,35.8,9.5,49.7
			c1,14-3.7,26.8-1.8,43.9c1.5,13.4,4.5,14.2,4.5,14.2s6,1.5,10.2-3.8c4.2-5.1-2.1-50.9-4.2-62.2c-2.1-11.4-8.8-38.1-10.6-46
			c-2.2-9.7-1.8-19.5-1.7-22.3c0.5-10,1.8-16.2,2.8-19.9C291,614.1,291.5,608.3,290.7,609.5z"/>
		<path class="st4" d="M308.1,622.3c5.5,15.7,22.5,23.8,38,18c15.5-5.8,23.7-23.2,18.3-38.9c-5.5-15.7-22.5-23.8-38-18
			C310.8,589.1,302.6,606.6,308.1,622.3z"/>
		<polygon class="st14" points="254.7,892.8 260.2,937.2 236.1,948.7 222.8,951.6 246.5,933.2 238.7,893.2 		"/>
		<path class="st4" d="M261.8,943.9l-5.2,1.4L253,942l-19.3,9.7l-17.1,4.1c0,0-0.2-1.4,0.3-2.1c2.1-2.8,14.2-9,14.2-9
			s0.2,4.1,1.9,4.2c1.7,0.1,16.5-7.7,19.9-9.8c5.9-3.7,7-6.1,7.4-5.8C261.6,934,261.8,943.9,261.8,943.9z"/>
		<polygon class="st14" points="196.5,831.1 177.3,868.9 150.8,867.7 137.6,863.8 166.9,858.8 182.8,826.5 		"/>
		<path class="st4" d="M175.7,875.6l-5.2-1.3l-1.7-4.6l-23.8-0.3l-14.2-3.4c0,0,1.7-1.9,2.7-2.4c3.1-1.4,14.4-2,14.4-2
			s-1.2,3.3,0.3,4.1c1.5,0.9,17.8,1.5,21.8,1.2c6.9-0.5,8.9-2,9.1-1.6C179.9,866.8,175.7,875.6,175.7,875.6z"/>
		<path class="st9" d="M336.5,718.1l-14.3,6.4l0.1,19.6L224,728.1c0,0-9.3-3-15.3,12.4c-8.5,21.8-30.1,89.7-30.1,89.7l13.6,14.8
			l42.9-76.7c0,0,87.9,42.7,116.9,33.5c11.1-3.6,19.6-23.9,18-44.5c-1.3-16.2-4.4-31-4.4-31L336.5,718.1z"/>
		<path class="st9" d="M324,801.3l-70.4-5.2l6.1,112.5l-20.8,0.7l-15.3-131.8c0,0,4.1-19.6,17.5-16.7
			C254.7,763.9,287.2,789.7,324,801.3z"/>
		<path class="st2" d="M371.5,829.6c0,0-36.9-41.4-46.5-64.8c-11.4-28-10.5-63.2-12.6-74.8c-3.9-21.4-8.6-63-9.4-68.1
			c-0.9-5.1,2.3-10.9,2.3-10.9s-2.4-15.5,4.5-13.9c10,2.4,19.8,7.9,23.3,9.5c6.5,2.9,19.8,81.2,20.6,85c2.7,13.6,12.7,26,19.8,38.7
			c16.8,30.1,21.1,65.7,21.1,65.7S392.5,822,371.5,829.6z"/>
		<g>
			<path class="st10" d="M333.4,721.2c0,0-0.3,5-23.8,3.9c-23.5-1.3-57.9-9.1-57.9-9.1l54.5-2.5C306.1,713.4,327,713.5,333.4,721.2z
				"/>
			<path class="st10" d="M270.1,718.7c-11.2-0.2-16.1,5.6-20.5,7.3c-4.4,1.8-8.9,4.4-8.9,4.4c2.5-4.9,6.1-5,8-6.6
				c1.8-1.6,1.4-0.7-2.6-1.2c-2.3-0.2-6.3,3.9-9.1,6.2c-2.5,2-4.1,2.1-4.1,2.1s2.9-4.2,6.6-7.6c4.5-4,10-7.3,11.3-7.9
				c2.4-0.9,9.9-1,15.2-0.2C272,716.1,278.2,718.9,270.1,718.7z"/>
			<path class="st10" d="M251.3,715.6c0,0-8.6,2.1-10.1,3.3c-1,0.8-5.5,5.6-5.5,5.6s3.1-0.5,5-2.3
				C242.7,720.4,251.3,715.6,251.3,715.6z"/>
		</g>
		<path class="st4" d="M314.6,715.6l34.8-18.4c0,0,0.1,22.2,0.3,30.7c0.2,8.5,3.8,20.5-2.9,22.2c-6.7,1.8-10.2,0.8-3.3,4.9
			c6.9,4,5.4,8.2,2.7,11.6c-2.6,3.5,8.8,38.7,6.1,40.7c-10.8-13.6-22.5-30.5-27.5-42.8C318.5,748.8,316,730.5,314.6,715.6z"/>
		<path class="st2" d="M325.8,706.7l-1.4-70.9c0,0,0.1-22.1,0.5-28.6c0.4-6.7,11.9,1.2,11.9,1.2s16.1,21.7,16.4,74.1
			c0.2,35-1.7,53.3-17.8,51.8c-15-1.4-32.1-3.7-32.1-3.7l-7.4-19.4L325.8,706.7z"/>
		<g>
			<polygon class="st8" points="322.3,744.2 202.3,729.1 202.6,726.6 322.6,741.6 			"/>
			<path class="st8" d="M269.7,734.9c-0.2,2-1.8,3.5-3.5,3.3l-61.5-7.7c-1.7-0.2-3.8-1.8-5.2-7l-23.7-61.4c0.3-2.5,2.3-3.8,4-3.1
				l62.9,9.9c1.7,0.6,2.8,2.1,3.5,4.8L269.7,734.9z"/>
			<path class="st8" d="M261.9,736.6l0.6,0.1l60,7.6c-2.3,0.9-6,1.3-10.1,0.7l-50.3-6.3l-0.6-0.1l-50.3-6.3
				c-4.1-0.5-7.6-1.8-9.7-3.1L261.9,736.6z"/>
		</g>
		<path class="st4" d="M325.8,706.7l-1.4-70.9c0,0,1-6,3.1-11.3c0.5,7.8,4.1,63.7,4.5,71c0.5,8,7,8.8,8.4,11.4
			c1.5,2.5,0.2,3-4.6,2.1c-4.7-1-3-0.2-2,2.3c1,2.6-1.6,1.9-10.8-1.5c-6.7-2.4-19.6,0-26.1,1.5L325.8,706.7z"/>
		<path class="st15" d="M740.5,532.6c-11.5,3-32.8,13.7-37.4,32.1c-6.7,27.6,6.7,68-14.5,107.7C681.8,685,805.9,702,805.9,702
			l23.9-139.3c0,0-29.9-30.2-36-32.3C781.1,526.1,763.6,526.5,740.5,532.6z"/>
		<path class="st2" d="M829.9,562.7c4.3,11.1,15.2,77.3,3,93c-1.4,1.8,6.3,4.6,4.9,12.8c-0.2,1.4-2.5,8-2.5,8l-9.9,2.6L804,654.2
			c0,0,8.7-13.5,20.1-64.8C827.5,574.3,829,560.2,829.9,562.7z"/>
		<path class="st12" d="M748.5,641.9c0,0,10.4,27.4,35.5,34.7c4.3,1.3,7,6.1,4.9,7.7c-2.7,2-6.3,2.4-12.6,2.4
			c-13.1,0-31-4.2-43.2-16.6c-18.3-18.3-24-26.7-22.1-35.8C712.6,625,748.5,641.9,748.5,641.9z"/>
		<path class="st2" d="M706.7,555.5c-5.4,9-8.4,23.5-8.3,44.3c0,16.1,13.4,42.4,15.4,50.5c0.3,1.4,1.2,7.1,1.2,7.1l14.8,15.1
			l29.7-20.9l-9-14.4l-2.7,0.3c0,0-1.7-8-1.3-11c0.4-3-8.2-44.5-12.5-71C731.6,540.1,712,546.6,706.7,555.5z"/>
		<path class="st4" d="M733.4,636.9l8.7-2.7l3.6-0.9c0.2,2.5,2.3,4.2,2.3,4.2l-6.8,0.8l-7.9,2.5l-9.2,6.6L733.4,636.9z"/>
		<path class="st12" d="M782.1,676.5l15.1-4.3c0,0,4.3,6,3.5,7.4c-0.8,1.5,0,10.3,0,10.3l-7.3,6.5l-6-2.1c0,0-0.4-2.7,1.6-2.9
			c2.1-0.3-1.4-1.8-2.4-2.4C785.4,688.2,776.7,683.6,782.1,676.5z"/>
		<path class="st16" d="M758.8,531.3c-1.7,4.9,0.8,10.5,5.7,12.2l8.6,3.1c4.8,1.8,10.1-0.9,11.8-5.9l7.7-22.7
			c1.7-4.9-0.8-10.5-5.7-12.3l-8.6-3.1c-4.8-1.8-10.1,0.9-11.8,5.9L758.8,531.3z"/>
		<path class="st12" d="M796.3,551.2c-0.8,3.3-4.2,5.2-7.3,4.3l-25.9-7.4c-3.1-0.9-5-4.3-4.2-7.7l10.6-39.8c0.8-3.3,4.2-5.2,7.3-4.3
			l25.9,7.3c3.1,0.9,5,4.3,4.2,7.7L796.3,551.2z"/>
		<path class="st1" d="M809.8,507.3L809.8,507.3c0.2-0.2-2.4-3.1-1-8.9c1.8-7.8-4-10.9-8.3-11c-2.5-0.1-11,4-15.5,5.4
			c-4.5,1.4-4.1-0.4-12.3-1.9c-5.5-1-6.7,2-8.6,6.2c-1.9,4.3-2.1,20.7-2.1,20.7c0.7,1,1.9,1.9,2.6,1s3.7-14,6.1-17.8
			c2.3-3.9,11.8,2.3,16.9,5.4c5,3,9.5,3.6,17.6,1.9c0.9,1,1.8,2.2,1.8,2.7c0,1-2.3,8.5-2.3,8.5s4.5-2.8,5.8-5
			C811,513.6,811.2,510.1,809.8,507.3z"/>
		<path class="st12" d="M767,532.1c-0.3,1-1.4,1.8-2.4,1.5l-5.6-1.6c-1-0.3-1.7-1.5-1.4-2.5l2.8-10.6c0.3-1,1.4-1.8,2.4-1.5l5.6,1.6
			c1,0.3,1.7,1.5,1.4,2.5L767,532.1z"/>
		<path class="st1" d="M763.6,522c0,0-4.2,15.6-5.6,20.9c-1.3,4.7-2.2,15.6,23.5,23c15.2,4.3,17.7-7.4,18.8-11.2
			c0.7-2.9-0.1-12.5-1.3-14.6c0-0.1-1.7,6.5-1.7,6.5s-1.5-7.2-8.7-9.2c-11.6-3.4-16.3,3-21.3,1.4C763.4,537.3,762.2,529.8,763.6,522
			z"/>
		<path class="st12" d="M781.1,546.1l8,2.3c1,0.3,2.2-0.3,2.4-1.5l0.3-1.2l-11.9-3.4l-0.3,1.2C779.4,544.7,780.1,545.7,781.1,546.1z
			"/>
		<path class="st17" d="M907.5,705c-3.7,10.6-68.3,49.5-90,47.2l-65.4,3.3c-55.5-7-81.8-96.4-81.8-96.4c2.2-22.5,57,10.1,76.5,20.1
			c30.8,15.9,50.5,16.8,50.5,16.8c20.7,2.2,44.6-14.4,70.7-14.9C896.6,680.4,913.4,688.3,907.5,705z"/>
		<g>
			<path class="st8" d="M765.5,694.3C765.5,694.2,765.5,694.2,765.5,694.3v-2.9l112.4-2.1v2.8v0.1l-0.3,0.5c-1.4,2.5-4,2.9-6.9,3
				l-97.8,1.9c-2.9,0.1-5.6-0.3-7-2.7L765.5,694.3z"/>
			<path class="st8" d="M792.5,694.2C792.5,694.2,792.5,694.3,792.5,694.2l-0.3,0.5c-0.4,0.6-0.9,1.2-1.6,1.5l-17.1,0.3
				c-2.8,0.1-5.4-0.2-6.8-2.2l-0.3-0.4c0,0,0,0-0.1-0.1v-1.4l26-0.5L792.5,694.2z"/>
			<g>
				<polygon class="st8" points="807.8,693.2 863.9,692.1 863.9,690.1 807.7,691.3 				"/>
			</g>
			<g>
				<path class="st8" d="M793.2,690.7l13.5-57.5c0.3-1.5,1.8-2.7,3.3-2.8l78.9-1.5c1.5,0,2.3,1.2,2,2.7l-13.5,57.5L793.2,690.7z"/>
			</g>
		</g>
		<path class="st12" d="M742.3,770.3c7.8,1.4,13.7-8,13.7-8l20.1-16.4l-4.3-11.1l-39.2,18.3C732.6,753.1,734.4,768.9,742.3,770.3z"
			/>
		<path class="st9" d="M755.9,761.7c0,0,0,0.9-1.5,5.2c-1.5,4.3-3.4,5.8-5.2,6.4c-7.6,2.3-12.9,1.2-31,4.7
			c-18,3.6-23.5,0.8-28.8-7.8c-5.2-8.6,0.2-15.4,9-16.1c12.7-0.9,19.8,0.5,26.4-0.5c6.9-1,7.3-2.7,11.4-5.4
			c3.8-2.4,7.3,12.1,3.8,15.4C736.9,766.7,753.3,767.1,755.9,761.7z"/>
		<path class="st3" d="M752.1,770c-7.4,2.3-12.9,1.2-31,4.7c-18,3.6-23.5,0.8-28.8-7.8c-2.4-4-2.5-7.6-1.2-10.3
			c-4,2.8-5.4,7.8-1.8,13.6c5.2,8.6,10.7,11.3,28.8,7.8c18-3.6,23.5-2.4,31-4.7c1.5-0.4,2.9-1.5,4.2-3.9
			C753,769.7,752.6,769.9,752.1,770z"/>
		<path class="st18" d="M755.9,762c0-0.2,0-0.2,0-0.2c0,0.1-0.1,0.2-0.2,0.3C755.8,762,755.9,762,755.9,762z"/>
		<g>
			<path class="st3" d="M717,768.4c-0.5,0.2-1-0.9-1.3-2.5c-0.3-3.3-1-6.4-2.1-9.7c-0.5-1.6-0.5-2.9,0.1-3.1
				c0.6-0.2,1.7,0.9,2.1,2.5c1,3.1,1.7,6.4,2,9.5C718,766.7,717.5,768.2,717,768.4z"/>
			<path class="st3" d="M722.6,767.3c-0.6,0.1-1.2-0.9-1.4-2.4c-0.3-3-1-6.1-2.1-9c-0.5-1.5-0.5-2.7,0.2-2.8c0.6-0.1,1.7,1,2.2,2.5
				c0.9,2.9,1.7,6,2,8.9C723.6,766,723.2,767.2,722.6,767.3z"/>
			<path class="st3" d="M728.4,767.1c-0.6,0.1-1.3-1-1.5-2.6c-0.5-3.1-1.3-6.2-2.4-9.3c-0.5-1.6-0.5-2.8,0.1-2.8
				c0.7,0,1.8,1.2,2.3,2.7c1.2,3,1.9,6.2,2.3,9.2C729.5,765.8,729.1,767,728.4,767.1z"/>
		</g>
		<path class="st4" d="M743.6,743.5c0,0,138.2-58.9,146.1-59c26.7-0.2,20.6,27.7,7,40.9c-15.9,15.5-137.2,44-137.2,44L743.6,743.5z"
			/>
		<polygon class="st12" points="798.4,753.8 760.6,716.7 776.8,700.2 817.9,745.1 		"/>
		<path class="st4" d="M806.2,724.6c0,0-96-91.2-102.4-93.9c-21.9-9.2-35.5,15.8-34.7,24.6c1,11.2,98.5,102.5,98.5,102.5
			L806.2,724.6z"/>
		<g>
			<path class="st9" d="M863.1,756.6c2.2,2.1,2.6,8.5,2.6,8.5s-32,12.6-43.2,12.8c-2.9,0.1-8.2-1.2-13.2-2.6
				c-0.8-0.2-2.8-2.5-3.7-2.7c-1.6-0.4-1.9,1-3.1,0.6c-3.4-1.2-5.9-2.1-6-2.3c-6.8-14.9-4.5-22.2-4.5-22.2s14.7,4.4,12.2,0.9
				c-5.4-7.3,10.1-14.8,13.4-10.9C831.4,754.3,856.6,750.4,863.1,756.6z"/>
			<path class="st3" d="M864.8,759.8c-9.9,4.1-30.5,12.4-34.6,12.7c-16.9,1.3-28.6-4.9-36.5-8.6c0.7,2.1,1.6,4.5,2.7,7
				c0.1,0.2,2.5,1.2,6,2.3c1.4,0.4,1.7-1.2,3.1-0.6c0.8,0.2,2.7,2.5,3.7,2.7c5,1.5,10.3,2.6,13.2,2.6c11.2-0.2,43.2-12.8,43.2-12.8
				S865.7,762.2,864.8,759.8z"/>
			<g>
				<path class="st3" d="M842.3,750.1c0.3,0.6-0.9,1.3-2.7,1.7c-3.7,0.7-7.2,1.9-10.8,3.4c-1.8,0.7-3.4,0.9-3.6,0.3
					c-0.2-0.6,0.9-1.8,2.7-2.5c3.5-1.5,7.1-2.5,10.7-3.3C840.3,749.2,842,749.5,842.3,750.1z"/>
				<path class="st3" d="M835,747.5c0.3,0.6-0.9,1.5-2.7,2c-3.6,1-7,2.5-10.5,4.3c-1.7,0.8-3.3,1.2-3.5,0.5c-0.2-0.6,0.9-2,2.6-2.8
					c3.4-1.7,6.8-3.1,10.4-4.1C833.2,746.7,834.8,746.9,835,747.5z"/>
				<path class="st3" d="M828.1,745.2c0.2,0.6-0.9,1.6-2.6,2.2c-3.5,1.4-6.8,3-10.1,5c-1.6,1-3,1.4-3.3,0.6
					c-0.2-0.6,0.8-2.1,2.5-3.1c3.3-2,6.6-3.7,10-4.9C826.3,744.5,827.9,744.6,828.1,745.2z"/>
			</g>
		</g>
	</g>
</g>
</svg>
