<?xml version="1.0" encoding="utf-8"?>
<!-- Generator: Adobe Illustrator 24.1.3, SVG Export Plug-In . SVG Version: 6.00 Build 0)  -->
<svg version="1.1" id="Layer_1" xmlns="http://www.w3.org/2000/svg" xmlns:xlink="http://www.w3.org/1999/xlink" x="0px" y="0px"
	 viewBox="0 0 1080 1080" style="enable-background:new 0 0 1080 1080;" xml:space="preserve">
<style type="text/css">
	.st0{opacity:0.31;fill:#DCE6EF;enable-background:new    ;}
	.st1{opacity:0.77;fill:#AE2E2E;enable-background:new    ;}
	.st2{fill:#0B4870;}
	.st3{fill:#AE2E2E;}
	.st4{fill:#F2F2F2;}
	.st5{fill:#D3D3D3;}
	.st6{fill:#FAB9AF;}
	.st7{fill:#E8948B;}
</style>
<g>
	<path class="st0" d="M1028.1,810.5c-2.1,0-14.8-17-17.2-19.3C990.9,772,979,750.8,970,727.8c-6.8-17.5-11.9-36.2-17.5-55.9
		c-3.8-13.3-9.8-28.1-23-32.3c-12.8-4.1-26.5,4.4-34.4,15.2c-7.9,10.9-11.8,24-18.5,35.6c-12.2,21-33.8,29.8-51.6,11.4
		c-25.5-26.4-36.9-62.4-53.1-94.6c-11.7-23.4-21.5-50.7-36.3-72.3c-22.5-32.9-53.4-60.9-94.5-60.9c-26,3.9-49,27-64.5,55.8
		c-15.5,28.8-24.6,63.1-32.3,97.3c-6.5,28.7-12.1,57.7-17.4,86.8c-9.8-35.1-19.9-70-30.9-104.2c-11.9-37.1-25.1-74.1-43.3-103.8
		c-18.3-29.7-42.5-51.6-66.8-51.4c-37.4,7.2-61.6,44.2-77.4,85.2c-10.4,26.8-15.4,59.4-22.8,87.7c-10.1,39.1-15.4,81.6-34.9,115.8
		c-13.6,23.9-34.5,17.8-48.6-3.7c-7.8-11.9-13.3-26-22-36.8c-8.7-10.8-22.5-17.9-33.5-11.1c-11.4,7-14.8,24.8-16.3,40.4
		c-2.3,23.1-4.3,45-8,65.9c-0.8,4.6-1.7,9.1-2.7,13.6h390.8c-0.3,1.7-0.5,3.4-0.8,5C509.8,816.6,1028.1,810.5,1028.1,810.5z"/>
	<path class="st1" d="M871.7,757.4c-1,20.1-22.9,55.4-43.1,54.4s-30.9-37.9-29.9-58c1-20.1,22.5-121,42.6-119.9
		C861.5,634.8,872.7,737.3,871.7,757.4z"/>
	<g>
		<path class="st2" d="M830.2,810.7C830.2,810.7,830.2,810.7,830.2,810.7c-0.3,0-0.5-0.3-0.5-0.6l10.2-163.3c0-0.3,0.2-0.5,0.6-0.5
			c0.3,0,0.5,0.3,0.5,0.6l-10.2,163.3C830.7,810.5,830.5,810.7,830.2,810.7z"/>
	</g>
	<path class="st1" d="M825.6,753.2c-4.6,10.1-8.1,20.7-10.2,31.7c-1.1,5.6-1.8,11.6,0.8,16.7c2.8,5.6,8.9,8.8,15,9.8
		c15,2.5,30-6.7,38.7-19.1c8.8-12.4,12.6-27.5,16.1-42.3c2.7-11.6,5.4-23.4,10.6-34.3c2.2-4.7,15.2-22.6,9.1-27.2
		c-8.4-6.6-32.8,0.6-48.3,17.6C844.5,720.2,833.4,736,825.6,753.2z"/>
	<g>
		<path class="st2" d="M831.2,812c0,0-0.1,0-0.1,0c-0.3-0.1-0.5-0.4-0.4-0.6c0.2-0.7,18.6-71,61.9-111c0.2-0.2,0.5-0.2,0.8,0
			c0.2,0.2,0.2,0.5,0,0.8c-43,39.8-61.4,109.8-61.6,110.5C831.6,811.8,831.4,812,831.2,812z"/>
	</g>
	<path class="st1" d="M931.5,736.6c-1.5,2.8-4.4,4.7-7.1,6.1c-3.2,1.8-6.7,3.4-10.1,5c-4.3,2-8.7,4.1-12.8,6.6c-3,1.9-5.6,4-7.9,6.3
		c3.5-8,7.6-15,12.5-21.2c6.4-8.2,12.9-12.4,19.5-12.4c0.2,0,0.3,0,0.5,0c2,0.1,3.6,0.6,4.7,1.5
		C932.9,730.5,932.8,734.2,931.5,736.6z"/>
	<path class="st1" d="M938.8,782.1c-2.6,1.8-6,2.3-9,2.5c-3.7,0.3-7.5,0.2-11.2,0.2c-4.7,0-9.6-0.1-14.4,0.5
		c-3.5,0.4-6.8,1.2-9.8,2.3c6.6-5.7,13.3-10.3,20.3-13.8c9.3-4.7,17-5.6,22.9-2.8c0.1,0.1,0.3,0.1,0.4,0.2c1.8,0.9,3,2,3.6,3.4
		C942.7,777.2,941,780.5,938.8,782.1z"/>
	<path class="st1" d="M921.5,804.5c-2.1-0.3-4.1-1.7-5.7-3c-2-1.6-3.9-3.4-5.7-5.2c-2.3-2.2-4.8-4.5-7.4-6.5c-1.9-1.4-4-2.6-5.9-3.4
		c6,0.2,11.4,1.1,16.6,2.7c6.8,2,11.1,5.1,12.7,9.3c0,0.1,0.1,0.2,0.1,0.3c0.5,1.3,0.5,2.4,0.2,3.4
		C925.8,803.9,923.4,804.8,921.5,804.5z"/>
	<g>
		<path class="st2" d="M872.5,812.4c-0.3,0-0.5-0.2-0.5-0.5c0-0.4,0.8-43.8,53-80.1c0.2-0.2,0.6-0.1,0.7,0.1s0.1,0.6-0.1,0.7
			c-51.8,36-52.6,78.8-52.6,79.2C873,812.1,872.8,812.4,872.5,812.4z"/>
	</g>
	<g>
		<path class="st2" d="M872.5,812.4c-0.1,0-0.2,0-0.2-0.1c-0.3-0.1-0.4-0.4-0.3-0.7c0.2-0.3,16.8-34.9,60.4-34.9
			c0.3,0,0.5,0.2,0.5,0.5c0,0.3-0.2,0.5-0.5,0.5c-42.9,0-59.3,33.9-59.4,34.3C872.9,812.3,872.7,812.4,872.5,812.4z"/>
	</g>
	<g>
		<path class="st2" d="M922.5,800.1c-0.1,0-0.2,0-0.3-0.1c-17.3-13-25.8-12.6-25.8-12.6c-0.3,0-0.5-0.2-0.6-0.5
			c0-0.3,0.2-0.5,0.5-0.6c0.4,0,8.9-0.5,26.5,12.8c0.2,0.2,0.3,0.5,0.1,0.8C922.8,800.1,922.7,800.1,922.5,800.1z"/>
	</g>
	<g>
		<path class="st3" d="M254.4,748.8c-7.6-8.8-17.2-16.3-20.2-27.4c-2.2-8.1-0.5-16.6,0.4-25c0.9-8.3,0.6-17.5-4.8-23.9
			c-4.4-5.3-11.5-7.6-18.2-9c-6.7-1.4-13.8-2.4-19.8-5.8c-9.7-5.6-7.8-15.1-13-23.4c-5.9-9.3-19.5-21.2-31.2-15
			c-12.4,6.6-10.4,26.5-2.2,35.3c5.5,5.8,12.4,11.4,13.3,19.4c1.2,12-12.5,22.7-8.7,34.2c2.8,8.4,13.4,11.3,18.7,18.5
			c5.2,7.1,4.1,17,1.1,25.3c-3.1,8.2-7.9,15.9-9.8,24.4c-3.9,17.6,9.9,29.7,25.6,33.6c14.4,3.6,45.5,1.9,45.5,1.9
			c11.1-3.9,23.4-13.6,29.5-24.3c4.6-8.1,5.3-18.3,1.7-26.8C260.4,756.3,257.6,752.4,254.4,748.8z"/>
		<g>
			<path class="st2" d="M220.3,811.9c-0.3,0-0.5-0.2-0.5-0.5c-5.7-90-58.3-172.1-58.8-172.9c-0.2-0.2-0.1-0.6,0.2-0.7
				c0.2-0.2,0.6-0.1,0.7,0.2c0.5,0.8,53.3,83.2,59,173.5C220.9,811.6,220.7,811.9,220.3,811.9C220.4,811.9,220.3,811.9,220.3,811.9z
				"/>
		</g>
		<path class="st3" d="M114.1,748.9c0.8-0.7,2-1.1,3.5-1.1c0.1,0,0.2,0,0.3,0c4.9,0,9.9,3.1,14.7,9.3c3.7,4.7,6.8,10,9.4,16
			c-1.7-1.7-3.7-3.3-5.9-4.7c-3.1-1.9-6.5-3.5-9.7-5c-2.5-1.2-5.1-2.4-7.6-3.8c-2-1.1-4.2-2.6-5.4-4.7
			C112.5,753.1,112.4,750.3,114.1,748.9z"/>
		<path class="st3" d="M105.9,783.6c0.4-1,1.4-1.8,2.7-2.5c0.1-0.1,0.2-0.1,0.3-0.2c4.5-2.1,10.3-1.4,17.3,2.1
			c5.3,2.7,10.4,6.1,15.4,10.5c-2.3-0.8-4.8-1.4-7.4-1.7c-3.6-0.4-7.3-0.4-10.9-0.4c-2.8,0-5.7,0-8.5-0.2c-2.3-0.2-4.9-0.5-6.8-1.9
			C106.3,788.1,105,785.7,105.9,783.6z"/>
		<path class="st3" d="M117.3,804.4c-0.2-0.7-0.2-1.5,0.2-2.5c0-0.1,0.1-0.2,0.1-0.2c1.2-3.1,4.5-5.5,9.6-7c3.9-1.2,8-1.8,12.6-2
			c-1.5,0.6-3,1.5-4.5,2.6c-2,1.5-3.8,3.2-5.6,4.9c-1.4,1.3-2.8,2.7-4.3,3.9c-1.2,1-2.7,2-4.3,2.3
			C119.6,806.5,117.8,805.9,117.3,804.4z"/>
		<g>
			<path class="st2" d="M158.1,812.4c-0.3,0-0.5-0.2-0.5-0.5c0-0.3-0.6-32.6-39.7-59.8c-0.2-0.2-0.3-0.5-0.1-0.7
				c0.2-0.2,0.5-0.3,0.7-0.1c39.5,27.5,40.2,60.3,40.2,60.7C158.6,812.1,158.4,812.4,158.1,812.4
				C158.1,812.4,158.1,812.4,158.1,812.4z"/>
		</g>
		<g>
			<path class="st2" d="M158.1,812.4c-0.2,0-0.4-0.1-0.5-0.3c-0.1-0.3-12.5-25.8-44.8-25.8c-0.3,0-0.5-0.2-0.5-0.5
				c0-0.3,0.2-0.5,0.5-0.5c33.1,0,45.7,26.2,45.8,26.5c0.1,0.3,0,0.6-0.3,0.7C158.2,812.3,158.2,812.4,158.1,812.4z"/>
		</g>
		<g>
			<path class="st2" d="M120.3,803.1c-0.2,0-0.3-0.1-0.4-0.2c-0.2-0.2-0.1-0.6,0.1-0.8c13.4-10.1,19.9-9.8,20.2-9.7
				c0.3,0,0.5,0.3,0.5,0.6c0,0.3-0.3,0.5-0.6,0.5l0,0c-0.1,0-6.4-0.3-19.4,9.5C120.5,803.1,120.4,803.1,120.3,803.1z"/>
		</g>
	</g>
	<g>
		<path class="st3" d="M685.8,789.8h-375c-8.3,0-15-6.7-15-15V270.1c0-8.3,6.7-15,15-15h112.1v4.1H310.8c-6,0-10.9,4.9-10.9,10.9
			v504.7c0,6,4.9,10.9,10.9,10.9h375c6,0,10.9-4.9,10.9-10.9V270.1c0-6-4.9-10.9-10.9-10.9H573.7v-4.1h112.1c8.3,0,15,6.7,15,15
			v504.7C700.8,783.1,694.1,789.8,685.8,789.8z"/>
	</g>
	<path class="st4" d="M670.2,763.3H326.4c-2.9,0-5.3-2.4-5.3-5.3V287c0-2.9,2.4-5.3,5.3-5.3h343.7c2.9,0,5.3,2.4,5.3,5.3v471
		C675.4,760.9,673.1,763.3,670.2,763.3z"/>
	<g>
		<path class="st3" d="M575.5,295.7H421.1v-50.5h44.7c0.3-17.7,14.8-32,32.5-32s32.2,14.3,32.5,32h44.7V295.7z M425.2,291.6h146.2
			v-42.3h-44.9l0.1-2.7c0-0.3,0-0.6,0-0.8c0-15.7-12.7-28.4-28.4-28.4c-15.7,0-28.4,12.7-28.4,28.4c0,0.3,0,0.6,0,0.8l0.1,2.7h-44.9
			L425.2,291.6L425.2,291.6z"/>
	</g>
	<g>
		<path class="st3" d="M498.3,264.9c-10.6,0-19.2-8.6-19.2-19.2s8.6-19.2,19.2-19.2s19.2,8.6,19.2,19.2S508.9,264.9,498.3,264.9z
			 M498.3,230.6c-8.3,0-15.1,6.8-15.1,15.1c0,8.3,6.8,15.1,15.1,15.1c8.3,0,15.1-6.8,15.1-15.1C513.4,237.4,506.6,230.6,498.3,230.6
			z"/>
	</g>
	<path class="st5" d="M1037.6,869H36.5c-15.9,0-28.7-12.9-28.7-28.7l0,0c0-15.9,12.9-28.7,28.7-28.7h1001.2
		c15.9,0,28.7,12.9,28.7,28.7l0,0C1066.3,856.1,1053.5,869,1037.6,869z"/>
	<g>
		<g>
			<g>
				<path class="st2" d="M425,415.4h-59.2v-59.2H425V415.4z M367.2,414h56.4v-56.4h-56.4V414z"/>
			</g>
			<g>
				<g>
					<g>
						<polygon class="st2" points="397.4,402.4 377.8,387 381.2,382.7 397,395.1 431.2,362.1 435,366.1 						"/>
					</g>
				</g>
			</g>
			<g>
				<g>
					<path class="st2" d="M640.4,373.3H452.1c-1.2,0-2.2-1-2.2-2.2l0,0c0-1.2,1-2.2,2.2-2.2h188.4c1.2,0,2.2,1,2.2,2.2l0,0
						C642.7,372.3,641.7,373.3,640.4,373.3z"/>
				</g>
				<g>
					<path class="st2" d="M640.4,383.1H452.1c-1.2,0-2.2-1-2.2-2.2l0,0c0-1.2,1-2.2,2.2-2.2h188.4c1.2,0,2.2,1,2.2,2.2l0,0
						C642.7,382.1,641.7,383.1,640.4,383.1z"/>
				</g>
				<g>
					<path class="st2" d="M640.4,392.9H452.1c-1.2,0-2.2-1-2.2-2.2l0,0c0-1.2,1-2.2,2.2-2.2h188.4c1.2,0,2.2,1,2.2,2.2l0,0
						C642.7,391.9,641.7,392.9,640.4,392.9z"/>
				</g>
				<g>
					<path class="st2" d="M640.4,402.8H452.1c-1.2,0-2.2-1-2.2-2.2l0,0c0-1.2,1-2.2,2.2-2.2h188.4c1.2,0,2.2,1,2.2,2.2l0,0
						C642.7,401.8,641.7,402.8,640.4,402.8z"/>
				</g>
			</g>
		</g>
		<g>
			<g>
				<path class="st2" d="M425,508.5h-59.2v-59.2H425V508.5z M367.2,507.1h56.4v-56.4h-56.4V507.1z"/>
			</g>
			<g>
				<g>
					<g>
						<polygon class="st2" points="397.4,495.4 377.8,480.1 381.2,475.8 397,488.2 431.2,455.2 435,459.1 						"/>
					</g>
				</g>
			</g>
			<g>
				<g>
					<path class="st2" d="M640.4,466.4H452.1c-1.2,0-2.2-1-2.2-2.2l0,0c0-1.2,1-2.2,2.2-2.2h188.4c1.2,0,2.2,1,2.2,2.2l0,0
						C642.7,465.4,641.7,466.4,640.4,466.4z"/>
				</g>
				<g>
					<path class="st2" d="M640.4,476.2H452.1c-1.2,0-2.2-1-2.2-2.2l0,0c0-1.2,1-2.2,2.2-2.2h188.4c1.2,0,2.2,1,2.2,2.2l0,0
						C642.7,475.2,641.7,476.2,640.4,476.2z"/>
				</g>
				<g>
					<path class="st2" d="M640.4,486H452.1c-1.2,0-2.2-1-2.2-2.2l0,0c0-1.2,1-2.2,2.2-2.2h188.4c1.2,0,2.2,1,2.2,2.2l0,0
						C642.7,485,641.7,486,640.4,486z"/>
				</g>
				<g>
					<path class="st2" d="M640.4,495.8H452.1c-1.2,0-2.2-1-2.2-2.2l0,0c0-1.2,1-2.2,2.2-2.2h188.4c1.2,0,2.2,1,2.2,2.2l0,0
						C642.7,494.8,641.7,495.8,640.4,495.8z"/>
				</g>
			</g>
		</g>
		<g>
			<g>
				<path class="st2" d="M425,601.5h-59.2v-59.2H425V601.5z M367.2,600.2h56.4v-56.4h-56.4V600.2z"/>
			</g>
			<g>
				<g>
					<g>
						<polygon class="st2" points="397.4,588.5 377.8,573.1 381.2,568.8 397,581.2 431.2,548.3 435,552.2 						"/>
					</g>
				</g>
			</g>
			<g>
				<g>
					<path class="st2" d="M640.4,559.5H452.1c-1.2,0-2.2-1-2.2-2.2l0,0c0-1.2,1-2.2,2.2-2.2h188.4c1.2,0,2.2,1,2.2,2.2l0,0
						C642.7,558.5,641.7,559.5,640.4,559.5z"/>
				</g>
				<g>
					<path class="st2" d="M640.4,569.3H452.1c-1.2,0-2.2-1-2.2-2.2l0,0c0-1.2,1-2.2,2.2-2.2h188.4c1.2,0,2.2,1,2.2,2.2l0,0
						C642.7,568.3,641.7,569.3,640.4,569.3z"/>
				</g>
				<g>
					<path class="st2" d="M640.4,579.1H452.1c-1.2,0-2.2-1-2.2-2.2l0,0c0-1.2,1-2.2,2.2-2.2h188.4c1.2,0,2.2,1,2.2,2.2l0,0
						C642.7,578.1,641.7,579.1,640.4,579.1z"/>
				</g>
				<g>
					<path class="st2" d="M640.4,588.9H452.1c-1.2,0-2.2-1-2.2-2.2l0,0c0-1.2,1-2.2,2.2-2.2h188.4c1.2,0,2.2,1,2.2,2.2l0,0
						C642.7,587.9,641.7,588.9,640.4,588.9z"/>
				</g>
			</g>
		</g>
		<g>
			<g>
				<path class="st2" d="M425,694.6h-59.2v-59.2H425V694.6z M367.2,693.2h56.4v-56.4h-56.4V693.2z"/>
			</g>
			<g>
				<g>
					<g>
						<polygon class="st2" points="397.4,681.6 377.8,666.2 381.2,661.9 397,674.3 431.2,641.3 435,645.3 						"/>
					</g>
				</g>
			</g>
			<g>
				<g>
					<path class="st2" d="M640.4,652.5H452.1c-1.2,0-2.2-1-2.2-2.2l0,0c0-1.2,1-2.2,2.2-2.2h188.4c1.2,0,2.2,1,2.2,2.2l0,0
						C642.7,651.5,641.7,652.5,640.4,652.5z"/>
				</g>
				<g>
					<path class="st2" d="M640.4,662.4H452.1c-1.2,0-2.2-1-2.2-2.2l0,0c0-1.2,1-2.2,2.2-2.2h188.4c1.2,0,2.2,1,2.2,2.2l0,0
						C642.7,661.4,641.7,662.4,640.4,662.4z"/>
				</g>
				<g>
					<path class="st2" d="M640.4,672.2H452.1c-1.2,0-2.2-1-2.2-2.2l0,0c0-1.2,1-2.2,2.2-2.2h188.4c1.2,0,2.2,1,2.2,2.2l0,0
						C642.7,671.2,641.7,672.2,640.4,672.2z"/>
				</g>
				<g>
					<path class="st2" d="M640.4,682H452.1c-1.2,0-2.2-1-2.2-2.2l0,0c0-1.2,1-2.2,2.2-2.2h188.4c1.2,0,2.2,1,2.2,2.2l0,0
						C642.7,681,641.7,682,640.4,682z"/>
				</g>
			</g>
		</g>
	</g>
	<g>
		<g>
			<path class="st6" d="M650,586.5c3.1-2.2,5.9-4.7,7.2-5.4c0.5-0.3,2.2-0.7,2.7-0.8c1.4-0.4,3.7-0.9,4.7-2l4.2-4.6
				c2-2.3,4.6-3,6.9-1l0,0c2.4,2.2,1.7,5.2-0.7,7.4l-2.9,3.3c-1.9,1.8-2.9,4.2-4,6.6c-2.2,4.9-7.2,8.5-11.4,11.1
				c-2.7,1.6-6.7,0.5-12-1.3c-2.6-0.9-6.4-3-3.1-4.3c2.7-1,10.9,1.2,14.5-6.3c0.2-0.4,0.6-1.4,0.2-1.7c-1.1-1-3.5,1.3-5.1,2
				c-2.3,1-4.1,0.7-4.7-0.2C645.9,588.4,647.8,588.1,650,586.5z"/>
			<path class="st3" d="M765.1,421.2c0,0-6.8,81.1-31,108.5c-14.6,16.5-50.3,44.8-58.6,51.3c-1.1,0.8-2.5,0.9-3.6,0.1
				c-0.7-0.5-1.5-1.1-2.2-1.7c-0.7-0.6-1.5-1.5-2.2-2.4c-1.2-1.4-1.1-3.5,0.1-4.9c9.3-10.1,45.7-50,50.1-60.5
				c5.1-12,13.8-83.2,21.8-93.5C747.5,407.8,762.9,405.5,765.1,421.2z"/>
			<polygon class="st6" points="734.5,555.2 755.1,409.9 810.9,402.2 839.9,554.1 			"/>
			<path class="st6" d="M777.6,780.2l-0.1,16.4c0,3.3,0.4,6.6,1.3,9.8l1.4,5c1.2,4.1-1.9,8.2-6.3,8.2c-11.1,0-30.2,0-35.1,0
				c-0.8,0-1.6-0.5-1.7-1.3c-0.4-4.8,13.4-8,23.8-12c7.9-3.1,7.5-17.3,6.5-25.6c-0.4-3.1,2.3-5.8,5.4-5.6l0,0
				C775.6,775.4,777.6,777.6,777.6,780.2z"/>
			<path class="st6" d="M854.2,775.6l5.6,18.7c0.2,0.8,0.6,1.6,1.1,2.3l4,5.9c2.5,3.8,0.7,8.9-3.6,10.2c0,0-8.1,2.8-16.4,5.6
				c-8.5,2.8-19.2,0.5-19.2-1.8c0-5,4.7-1,12.4-6.2c2.6-1.8,5.3-3.6,7.7-5.5c6.7-5.3,0.8-18.6-3.3-26.1c-1.5-2.7,0.1-6,3.1-6.7
				l1.9-0.4C850.5,771.2,853.4,772.9,854.2,775.6z"/>
			<path class="st2" d="M796.6,556.6l-61.8-5.2c0,0-6.2,45,9.4,126.4c7.3,38.2,22.6,111.2,22.6,111.2c3.8,1.7,7.6,2.1,11.5,1.1
				c0,0,1.2-32.2,1.9-66.9c0.7-33.2,0.9-68.8,3-80.4C787.5,619.1,796.6,556.6,796.6,556.6z"/>
			<path class="st2" d="M783.8,557.3c-6.4,34.2-20.6,85.5,6.8,133.6C818.1,739,847,789,847,789c3.7,0.2,7.1-1.2,10.2-3.6
				c0,0-4.8-21.8-11.8-47.3c-8-29.1-18-63.4-15.2-81.3c5.4-33.5,11.6-78.1,9.7-99.7C838,535.5,787.2,539.3,783.8,557.3z"/>
			<path class="st4" d="M732.3,551.5l22.8-141.6l55.8-7.7l30,149.5c0.6,2.8-1.3,5.5-4.1,6.1c-10.4,2-35.4,6.1-63.5,6.1
				c-20.9,0-32.7-4.1-38-6.6C733.1,556.2,731.9,553.8,732.3,551.5z"/>
			<path class="st6" d="M842.7,606.2c0.8-3.7,1.3-7.4,1.8-8.8c0.2-0.6,1.2-2,1.5-2.4c0.8-1.3,2.2-3.1,2.2-4.6l0.1-6.3
				c0-3,1.5-5.3,4.5-5.3l0,0c3.3,0,4.8,2.8,4.4,6v4.4c-0.3,2.6,0.6,5.1,1.4,7.6c1.6,5.1,0.3,11.1-1.2,15.8c-0.9,3-4.7,4.8-9.9,6.9
				c-2.5,1.1-6.8,1.9-5.2-1.1c1.4-2.6,9-6.3,6.7-14.4c-0.1-0.4-0.5-1.4-1-1.4c-1.5,0-1.8,3.3-2.5,4.9c-1,2.3-2.6,3.2-3.6,3
				C840.9,610.4,842.1,608.9,842.7,606.2z"/>
			<path class="st3" d="M793.5,411.1c0,10.2,1.9,20.3,5.3,29.9c6.8,18.8,17,54.2,11,85.4c-8.7,45-20,63.2-5.4,73.7
				c14.6,10.5,42.5-7,43.3-12.8c0.8-5.8-5.4-77.5-12.5-108.5c-7.1-31-26.9-75.6-26.9-75.6l-8.4,0.9
				C796.2,404.3,793.5,407.4,793.5,411.1L793.5,411.1z"/>
			<path class="st3" d="M819.7,406.1c0,0,48.6,65.3,48.5,101.9c-0.1,22-8.2,66.9-10.1,77.2c-0.2,1.3-1.3,2.3-2.7,2.5
				c-0.8,0.1-1.8,0.2-2.7,0.2c-0.9,0-2.1-0.1-3.2-0.3c-1.8-0.3-3.2-1.9-3.1-3.7c0.3-13.7,1.2-67.7-2.5-78.5
				c-4.2-12.4-44.7-71.5-45.4-84.6C797.6,407.7,807.7,395.8,819.7,406.1z"/>
			<path class="st3" d="M770.3,407.8c0,0-9.7,20.9-6.3,50.9c3.4,30,11.2,121.5-16.1,135.3c-8.7,4.4-28.4-15-28.4-22.2
				c0-7.2,6.6-31.2,12.8-53.1s21.3-108.7,21.3-108.7L770.3,407.8z"/>
			<g>
				<path class="st6" d="M778.1,343c12.4,0,17.1,8.9,17.3,25.2c0.1,6.1-2.7,12.2-4.9,16.1c-1.7,2.9-2.1,6.3-1.2,9.5l2.7,9.2
					c1.9,8.6-2.2,13.3-8.2,15c-3,0.8-6.6,0.2-9.1-1.5c-3.1-2-3.4-6.3-2.8-9.9l0.7-2.6c1-3.6-1.1-7.4-4.7-8.2
					c-9.6-2.1-11-12.1-13.5-27.6C751.7,352.1,765.6,343,778.1,343z"/>
				<path class="st2" d="M749.1,335.8l7.1,2.2c2.6,0.8,5.4,0.8,8.1,0.1l14.3-4.1c8.6,0,22.9,4.9,21.1,17.3l-1.6,8.8
					c-0.6,3.5-3.6,6.2-7.1,6.5l0,0c-0.3,1.2-1.4,2.1-2.7,2.1c-1.5,0-2.8-1.2-2.8-2.8l0,0c0-4-2.8-7.4-6.7-8.2
					c-4.8-1.1-9.8-1.3-15.2,0.1c-9.9,2.7-20.4-3.5-21.3-13.7c-0.1-0.6-0.1-1.3-0.1-2C742.1,337.9,745.5,334.9,749.1,335.8z"/>
				<path class="st6" d="M788.5,368.6c0,3.8,1.4,6.9,5.1,6.9c3.7,0,6-5.2,6-9s-2.4-4.7-6-4.7C789.9,361.7,788.5,364.8,788.5,368.6z"
					/>
			</g>
		</g>
		<path class="st7" d="M790,385.3c0,0-9.3,12.8-20.9,11.1c0,0,2.4,1.1,3,3C772.2,399.3,783.1,398.5,790,385.3z"/>
	</g>
	<path class="st4" d="M814.7,207.1c0,8.9-5.9,16.1-13.1,16.1H646.4c-7.2,0-13.1-7.2-13.1-16.1l0,0c0-8.9,5.9-16.1,13.1-16.1h155.2
		C808.8,191.1,814.7,198.3,814.7,207.1L814.7,207.1z"/>
	<path class="st4" d="M259.2,293.2c0,8.9-7.2,16.1-16.1,16.1H52.4c-8.9,0-16.1-7.2-16.1-16.1l0,0c0-8.9,7.2-16.1,16.1-16.1h190.7
		C252,277.2,259.2,284.4,259.2,293.2L259.2,293.2z"/>
	<path class="st4" d="M337.1,207.1c0,8.9-6,16.1-13.3,16.1H166c-7.3,0-13.3-7.2-13.3-16.1l0,0c0-8.9,6-16.1,13.3-16.1h157.8
		C331.2,191,337.1,198.2,337.1,207.1L337.1,207.1z"/>
	<path class="st4" d="M984.6,276.8c0,8.9-7.2,16.1-16.1,16.1H777.8c-8.9,0-16.1-7.2-16.1-16.1l0,0c0-8.9,7.2-16.1,16.1-16.1h190.7
		C977.4,260.7,984.6,267.9,984.6,276.8L984.6,276.8z"/>
</g>
<path class="st2" d="M717.1,743.1c0,0-6.3,2.8-12.2-1.5c0,0-14.5,2.3-18.7,6.6c-4.2,4.3-1.2,6.4,4.1,6.3c5.2-0.1,25.5-0.3,25.5-0.3
	S720.9,751,717.1,743.1z"/>
<path class="st2" d="M777.8,736c0,0-3.1,4-10,1.7c0,0-15.3,7-18,12.3c-2.7,5.3,0.8,6.5,5.8,4.8s24.2-7.8,24.2-7.8
	S783.8,742.5,777.8,736z"/>
</svg>
